G04 #@! TF.GenerationSoftware,KiCad,Pcbnew,(5.1.5)-3*
G04 #@! TF.CreationDate,2020-03-05T23:42:00+09:00*
G04 #@! TF.ProjectId,USB_Type-C_to_DIP-fin,5553425f-5479-4706-952d-435f746f5f44,rev?*
G04 #@! TF.SameCoordinates,Original*
G04 #@! TF.FileFunction,Legend,Top*
G04 #@! TF.FilePolarity,Positive*
%FSLAX46Y46*%
G04 Gerber Fmt 4.6, Leading zero omitted, Abs format (unit mm)*
G04 Created by KiCad (PCBNEW (5.1.5)-3) date 2020-03-05 23:42:00*
%MOMM*%
%LPD*%
G04 APERTURE LIST*
%ADD10C,0.050000*%
%ADD11C,0.150000*%
%ADD12C,0.120000*%
%ADD13C,0.010000*%
%ADD14R,0.862000X1.302000*%
%ADD15R,0.902000X1.302000*%
%ADD16R,0.802000X1.302000*%
%ADD17O,1.202000X1.802000*%
%ADD18R,1.802000X1.802000*%
%ADD19O,1.802000X1.802000*%
%ADD20C,0.802000*%
%ADD21O,1.002000X2.502000*%
%ADD22O,1.002000X1.802000*%
%ADD23C,1.502000*%
%ADD24R,0.402000X0.802000*%
%ADD25C,1.052000*%
%ADD26C,0.752000*%
%ADD27O,1.102000X1.702000*%
%ADD28O,1.102000X2.202000*%
%ADD29R,0.402000X1.552000*%
%ADD30R,0.702000X1.552000*%
G04 APERTURE END LIST*
D10*
X132000000Y-132000000D02*
X126000000Y-132000000D01*
X126000000Y-132000000D02*
X126000000Y-92000000D01*
X224000000Y-90000000D02*
X224000000Y-130000000D01*
X224000000Y-130000000D02*
X224000000Y-132000000D01*
D11*
X175952380Y-71880952D02*
X176761904Y-71880952D01*
X176857142Y-71833333D01*
X176904761Y-71785714D01*
X176952380Y-71690476D01*
X176952380Y-71500000D01*
X176904761Y-71404761D01*
X176857142Y-71357142D01*
X176761904Y-71309523D01*
X175952380Y-71309523D01*
X176904761Y-70880952D02*
X176952380Y-70738095D01*
X176952380Y-70500000D01*
X176904761Y-70404761D01*
X176857142Y-70357142D01*
X176761904Y-70309523D01*
X176666666Y-70309523D01*
X176571428Y-70357142D01*
X176523809Y-70404761D01*
X176476190Y-70500000D01*
X176428571Y-70690476D01*
X176380952Y-70785714D01*
X176333333Y-70833333D01*
X176238095Y-70880952D01*
X176142857Y-70880952D01*
X176047619Y-70833333D01*
X176000000Y-70785714D01*
X175952380Y-70690476D01*
X175952380Y-70452380D01*
X176000000Y-70309523D01*
X176428571Y-69547619D02*
X176476190Y-69404761D01*
X176523809Y-69357142D01*
X176619047Y-69309523D01*
X176761904Y-69309523D01*
X176857142Y-69357142D01*
X176904761Y-69404761D01*
X176952380Y-69500000D01*
X176952380Y-69880952D01*
X175952380Y-69880952D01*
X175952380Y-69547619D01*
X176000000Y-69452380D01*
X176047619Y-69404761D01*
X176142857Y-69357142D01*
X176238095Y-69357142D01*
X176333333Y-69404761D01*
X176380952Y-69452380D01*
X176428571Y-69547619D01*
X176428571Y-69880952D01*
X175952380Y-68261904D02*
X175952380Y-67690476D01*
X176952380Y-67976190D02*
X175952380Y-67976190D01*
X176285714Y-67452380D02*
X176952380Y-67214285D01*
X176285714Y-66976190D02*
X176952380Y-67214285D01*
X177190476Y-67309523D01*
X177238095Y-67357142D01*
X177285714Y-67452380D01*
X176285714Y-66595238D02*
X177285714Y-66595238D01*
X176333333Y-66595238D02*
X176285714Y-66500000D01*
X176285714Y-66309523D01*
X176333333Y-66214285D01*
X176380952Y-66166666D01*
X176476190Y-66119047D01*
X176761904Y-66119047D01*
X176857142Y-66166666D01*
X176904761Y-66214285D01*
X176952380Y-66309523D01*
X176952380Y-66500000D01*
X176904761Y-66595238D01*
X176904761Y-65309523D02*
X176952380Y-65404761D01*
X176952380Y-65595238D01*
X176904761Y-65690476D01*
X176809523Y-65738095D01*
X176428571Y-65738095D01*
X176333333Y-65690476D01*
X176285714Y-65595238D01*
X176285714Y-65404761D01*
X176333333Y-65309523D01*
X176428571Y-65261904D01*
X176523809Y-65261904D01*
X176619047Y-65738095D01*
X176571428Y-64833333D02*
X176571428Y-64071428D01*
X176857142Y-63023809D02*
X176904761Y-63071428D01*
X176952380Y-63214285D01*
X176952380Y-63309523D01*
X176904761Y-63452380D01*
X176809523Y-63547619D01*
X176714285Y-63595238D01*
X176523809Y-63642857D01*
X176380952Y-63642857D01*
X176190476Y-63595238D01*
X176095238Y-63547619D01*
X176000000Y-63452380D01*
X175952380Y-63309523D01*
X175952380Y-63214285D01*
X176000000Y-63071428D01*
X176047619Y-63023809D01*
X176047619Y-61880952D02*
X176000000Y-61833333D01*
X175952380Y-61738095D01*
X175952380Y-61500000D01*
X176000000Y-61404761D01*
X176047619Y-61357142D01*
X176142857Y-61309523D01*
X176238095Y-61309523D01*
X176380952Y-61357142D01*
X176952380Y-61928571D01*
X176952380Y-61309523D01*
X176285714Y-60452380D02*
X176952380Y-60452380D01*
X175904761Y-60690476D02*
X176619047Y-60928571D01*
X176619047Y-60309523D01*
X176285714Y-59928571D02*
X177285714Y-59928571D01*
X176333333Y-59928571D02*
X176285714Y-59833333D01*
X176285714Y-59642857D01*
X176333333Y-59547619D01*
X176380952Y-59500000D01*
X176476190Y-59452380D01*
X176761904Y-59452380D01*
X176857142Y-59500000D01*
X176904761Y-59547619D01*
X176952380Y-59642857D01*
X176952380Y-59833333D01*
X176904761Y-59928571D01*
X176952380Y-59023809D02*
X176285714Y-59023809D01*
X175952380Y-59023809D02*
X176000000Y-59071428D01*
X176047619Y-59023809D01*
X176000000Y-58976190D01*
X175952380Y-59023809D01*
X176047619Y-59023809D01*
X176285714Y-58547619D02*
X176952380Y-58547619D01*
X176380952Y-58547619D02*
X176333333Y-58500000D01*
X176285714Y-58404761D01*
X176285714Y-58261904D01*
X176333333Y-58166666D01*
X176428571Y-58119047D01*
X176952380Y-58119047D01*
X126952380Y-71880952D02*
X127761904Y-71880952D01*
X127857142Y-71833333D01*
X127904761Y-71785714D01*
X127952380Y-71690476D01*
X127952380Y-71500000D01*
X127904761Y-71404761D01*
X127857142Y-71357142D01*
X127761904Y-71309523D01*
X126952380Y-71309523D01*
X127904761Y-70880952D02*
X127952380Y-70738095D01*
X127952380Y-70500000D01*
X127904761Y-70404761D01*
X127857142Y-70357142D01*
X127761904Y-70309523D01*
X127666666Y-70309523D01*
X127571428Y-70357142D01*
X127523809Y-70404761D01*
X127476190Y-70500000D01*
X127428571Y-70690476D01*
X127380952Y-70785714D01*
X127333333Y-70833333D01*
X127238095Y-70880952D01*
X127142857Y-70880952D01*
X127047619Y-70833333D01*
X127000000Y-70785714D01*
X126952380Y-70690476D01*
X126952380Y-70452380D01*
X127000000Y-70309523D01*
X127428571Y-69547619D02*
X127476190Y-69404761D01*
X127523809Y-69357142D01*
X127619047Y-69309523D01*
X127761904Y-69309523D01*
X127857142Y-69357142D01*
X127904761Y-69404761D01*
X127952380Y-69500000D01*
X127952380Y-69880952D01*
X126952380Y-69880952D01*
X126952380Y-69547619D01*
X127000000Y-69452380D01*
X127047619Y-69404761D01*
X127142857Y-69357142D01*
X127238095Y-69357142D01*
X127333333Y-69404761D01*
X127380952Y-69452380D01*
X127428571Y-69547619D01*
X127428571Y-69880952D01*
X126952380Y-68261904D02*
X126952380Y-67690476D01*
X127952380Y-67976190D02*
X126952380Y-67976190D01*
X127285714Y-67452380D02*
X127952380Y-67214285D01*
X127285714Y-66976190D02*
X127952380Y-67214285D01*
X128190476Y-67309523D01*
X128238095Y-67357142D01*
X128285714Y-67452380D01*
X127285714Y-66595238D02*
X128285714Y-66595238D01*
X127333333Y-66595238D02*
X127285714Y-66500000D01*
X127285714Y-66309523D01*
X127333333Y-66214285D01*
X127380952Y-66166666D01*
X127476190Y-66119047D01*
X127761904Y-66119047D01*
X127857142Y-66166666D01*
X127904761Y-66214285D01*
X127952380Y-66309523D01*
X127952380Y-66500000D01*
X127904761Y-66595238D01*
X127904761Y-65309523D02*
X127952380Y-65404761D01*
X127952380Y-65595238D01*
X127904761Y-65690476D01*
X127809523Y-65738095D01*
X127428571Y-65738095D01*
X127333333Y-65690476D01*
X127285714Y-65595238D01*
X127285714Y-65404761D01*
X127333333Y-65309523D01*
X127428571Y-65261904D01*
X127523809Y-65261904D01*
X127619047Y-65738095D01*
X127571428Y-64833333D02*
X127571428Y-64071428D01*
X127857142Y-63023809D02*
X127904761Y-63071428D01*
X127952380Y-63214285D01*
X127952380Y-63309523D01*
X127904761Y-63452380D01*
X127809523Y-63547619D01*
X127714285Y-63595238D01*
X127523809Y-63642857D01*
X127380952Y-63642857D01*
X127190476Y-63595238D01*
X127095238Y-63547619D01*
X127000000Y-63452380D01*
X126952380Y-63309523D01*
X126952380Y-63214285D01*
X127000000Y-63071428D01*
X127047619Y-63023809D01*
X127047619Y-61880952D02*
X127000000Y-61833333D01*
X126952380Y-61738095D01*
X126952380Y-61500000D01*
X127000000Y-61404761D01*
X127047619Y-61357142D01*
X127142857Y-61309523D01*
X127238095Y-61309523D01*
X127380952Y-61357142D01*
X127952380Y-61928571D01*
X127952380Y-61309523D01*
X127285714Y-60452380D02*
X127952380Y-60452380D01*
X126904761Y-60690476D02*
X127619047Y-60928571D01*
X127619047Y-60309523D01*
X127285714Y-59928571D02*
X128285714Y-59928571D01*
X127333333Y-59928571D02*
X127285714Y-59833333D01*
X127285714Y-59642857D01*
X127333333Y-59547619D01*
X127380952Y-59500000D01*
X127476190Y-59452380D01*
X127761904Y-59452380D01*
X127857142Y-59500000D01*
X127904761Y-59547619D01*
X127952380Y-59642857D01*
X127952380Y-59833333D01*
X127904761Y-59928571D01*
X127952380Y-59023809D02*
X127285714Y-59023809D01*
X126952380Y-59023809D02*
X127000000Y-59071428D01*
X127047619Y-59023809D01*
X127000000Y-58976190D01*
X126952380Y-59023809D01*
X127047619Y-59023809D01*
X127285714Y-58547619D02*
X127952380Y-58547619D01*
X127380952Y-58547619D02*
X127333333Y-58500000D01*
X127285714Y-58404761D01*
X127285714Y-58261904D01*
X127333333Y-58166666D01*
X127428571Y-58119047D01*
X127952380Y-58119047D01*
X175952380Y-111880952D02*
X176761904Y-111880952D01*
X176857142Y-111833333D01*
X176904761Y-111785714D01*
X176952380Y-111690476D01*
X176952380Y-111500000D01*
X176904761Y-111404761D01*
X176857142Y-111357142D01*
X176761904Y-111309523D01*
X175952380Y-111309523D01*
X176904761Y-110880952D02*
X176952380Y-110738095D01*
X176952380Y-110500000D01*
X176904761Y-110404761D01*
X176857142Y-110357142D01*
X176761904Y-110309523D01*
X176666666Y-110309523D01*
X176571428Y-110357142D01*
X176523809Y-110404761D01*
X176476190Y-110500000D01*
X176428571Y-110690476D01*
X176380952Y-110785714D01*
X176333333Y-110833333D01*
X176238095Y-110880952D01*
X176142857Y-110880952D01*
X176047619Y-110833333D01*
X176000000Y-110785714D01*
X175952380Y-110690476D01*
X175952380Y-110452380D01*
X176000000Y-110309523D01*
X176428571Y-109547619D02*
X176476190Y-109404761D01*
X176523809Y-109357142D01*
X176619047Y-109309523D01*
X176761904Y-109309523D01*
X176857142Y-109357142D01*
X176904761Y-109404761D01*
X176952380Y-109500000D01*
X176952380Y-109880952D01*
X175952380Y-109880952D01*
X175952380Y-109547619D01*
X176000000Y-109452380D01*
X176047619Y-109404761D01*
X176142857Y-109357142D01*
X176238095Y-109357142D01*
X176333333Y-109404761D01*
X176380952Y-109452380D01*
X176428571Y-109547619D01*
X176428571Y-109880952D01*
X175952380Y-108261904D02*
X175952380Y-107690476D01*
X176952380Y-107976190D02*
X175952380Y-107976190D01*
X176285714Y-107452380D02*
X176952380Y-107214285D01*
X176285714Y-106976190D02*
X176952380Y-107214285D01*
X177190476Y-107309523D01*
X177238095Y-107357142D01*
X177285714Y-107452380D01*
X176285714Y-106595238D02*
X177285714Y-106595238D01*
X176333333Y-106595238D02*
X176285714Y-106500000D01*
X176285714Y-106309523D01*
X176333333Y-106214285D01*
X176380952Y-106166666D01*
X176476190Y-106119047D01*
X176761904Y-106119047D01*
X176857142Y-106166666D01*
X176904761Y-106214285D01*
X176952380Y-106309523D01*
X176952380Y-106500000D01*
X176904761Y-106595238D01*
X176904761Y-105309523D02*
X176952380Y-105404761D01*
X176952380Y-105595238D01*
X176904761Y-105690476D01*
X176809523Y-105738095D01*
X176428571Y-105738095D01*
X176333333Y-105690476D01*
X176285714Y-105595238D01*
X176285714Y-105404761D01*
X176333333Y-105309523D01*
X176428571Y-105261904D01*
X176523809Y-105261904D01*
X176619047Y-105738095D01*
X176571428Y-104833333D02*
X176571428Y-104071428D01*
X176857142Y-103023809D02*
X176904761Y-103071428D01*
X176952380Y-103214285D01*
X176952380Y-103309523D01*
X176904761Y-103452380D01*
X176809523Y-103547619D01*
X176714285Y-103595238D01*
X176523809Y-103642857D01*
X176380952Y-103642857D01*
X176190476Y-103595238D01*
X176095238Y-103547619D01*
X176000000Y-103452380D01*
X175952380Y-103309523D01*
X175952380Y-103214285D01*
X176000000Y-103071428D01*
X176047619Y-103023809D01*
X176047619Y-101880952D02*
X176000000Y-101833333D01*
X175952380Y-101738095D01*
X175952380Y-101500000D01*
X176000000Y-101404761D01*
X176047619Y-101357142D01*
X176142857Y-101309523D01*
X176238095Y-101309523D01*
X176380952Y-101357142D01*
X176952380Y-101928571D01*
X176952380Y-101309523D01*
X176285714Y-100452380D02*
X176952380Y-100452380D01*
X175904761Y-100690476D02*
X176619047Y-100928571D01*
X176619047Y-100309523D01*
X176285714Y-99928571D02*
X177285714Y-99928571D01*
X176333333Y-99928571D02*
X176285714Y-99833333D01*
X176285714Y-99642857D01*
X176333333Y-99547619D01*
X176380952Y-99500000D01*
X176476190Y-99452380D01*
X176761904Y-99452380D01*
X176857142Y-99500000D01*
X176904761Y-99547619D01*
X176952380Y-99642857D01*
X176952380Y-99833333D01*
X176904761Y-99928571D01*
X176952380Y-99023809D02*
X176285714Y-99023809D01*
X175952380Y-99023809D02*
X176000000Y-99071428D01*
X176047619Y-99023809D01*
X176000000Y-98976190D01*
X175952380Y-99023809D01*
X176047619Y-99023809D01*
X176285714Y-98547619D02*
X176952380Y-98547619D01*
X176380952Y-98547619D02*
X176333333Y-98500000D01*
X176285714Y-98404761D01*
X176285714Y-98261904D01*
X176333333Y-98166666D01*
X176428571Y-98119047D01*
X176952380Y-98119047D01*
X205952380Y-71880952D02*
X206761904Y-71880952D01*
X206857142Y-71833333D01*
X206904761Y-71785714D01*
X206952380Y-71690476D01*
X206952380Y-71500000D01*
X206904761Y-71404761D01*
X206857142Y-71357142D01*
X206761904Y-71309523D01*
X205952380Y-71309523D01*
X206904761Y-70880952D02*
X206952380Y-70738095D01*
X206952380Y-70500000D01*
X206904761Y-70404761D01*
X206857142Y-70357142D01*
X206761904Y-70309523D01*
X206666666Y-70309523D01*
X206571428Y-70357142D01*
X206523809Y-70404761D01*
X206476190Y-70500000D01*
X206428571Y-70690476D01*
X206380952Y-70785714D01*
X206333333Y-70833333D01*
X206238095Y-70880952D01*
X206142857Y-70880952D01*
X206047619Y-70833333D01*
X206000000Y-70785714D01*
X205952380Y-70690476D01*
X205952380Y-70452380D01*
X206000000Y-70309523D01*
X206428571Y-69547619D02*
X206476190Y-69404761D01*
X206523809Y-69357142D01*
X206619047Y-69309523D01*
X206761904Y-69309523D01*
X206857142Y-69357142D01*
X206904761Y-69404761D01*
X206952380Y-69500000D01*
X206952380Y-69880952D01*
X205952380Y-69880952D01*
X205952380Y-69547619D01*
X206000000Y-69452380D01*
X206047619Y-69404761D01*
X206142857Y-69357142D01*
X206238095Y-69357142D01*
X206333333Y-69404761D01*
X206380952Y-69452380D01*
X206428571Y-69547619D01*
X206428571Y-69880952D01*
X205952380Y-68261904D02*
X205952380Y-67690476D01*
X206952380Y-67976190D02*
X205952380Y-67976190D01*
X206285714Y-67452380D02*
X206952380Y-67214285D01*
X206285714Y-66976190D02*
X206952380Y-67214285D01*
X207190476Y-67309523D01*
X207238095Y-67357142D01*
X207285714Y-67452380D01*
X206285714Y-66595238D02*
X207285714Y-66595238D01*
X206333333Y-66595238D02*
X206285714Y-66500000D01*
X206285714Y-66309523D01*
X206333333Y-66214285D01*
X206380952Y-66166666D01*
X206476190Y-66119047D01*
X206761904Y-66119047D01*
X206857142Y-66166666D01*
X206904761Y-66214285D01*
X206952380Y-66309523D01*
X206952380Y-66500000D01*
X206904761Y-66595238D01*
X206904761Y-65309523D02*
X206952380Y-65404761D01*
X206952380Y-65595238D01*
X206904761Y-65690476D01*
X206809523Y-65738095D01*
X206428571Y-65738095D01*
X206333333Y-65690476D01*
X206285714Y-65595238D01*
X206285714Y-65404761D01*
X206333333Y-65309523D01*
X206428571Y-65261904D01*
X206523809Y-65261904D01*
X206619047Y-65738095D01*
X206571428Y-64833333D02*
X206571428Y-64071428D01*
X206857142Y-63023809D02*
X206904761Y-63071428D01*
X206952380Y-63214285D01*
X206952380Y-63309523D01*
X206904761Y-63452380D01*
X206809523Y-63547619D01*
X206714285Y-63595238D01*
X206523809Y-63642857D01*
X206380952Y-63642857D01*
X206190476Y-63595238D01*
X206095238Y-63547619D01*
X206000000Y-63452380D01*
X205952380Y-63309523D01*
X205952380Y-63214285D01*
X206000000Y-63071428D01*
X206047619Y-63023809D01*
X206952380Y-61309523D02*
X206952380Y-61880952D01*
X206952380Y-61595238D02*
X205952380Y-61595238D01*
X206095238Y-61690476D01*
X206190476Y-61785714D01*
X206238095Y-61880952D01*
X205952380Y-60452380D02*
X205952380Y-60642857D01*
X206000000Y-60738095D01*
X206047619Y-60785714D01*
X206190476Y-60880952D01*
X206380952Y-60928571D01*
X206761904Y-60928571D01*
X206857142Y-60880952D01*
X206904761Y-60833333D01*
X206952380Y-60738095D01*
X206952380Y-60547619D01*
X206904761Y-60452380D01*
X206857142Y-60404761D01*
X206761904Y-60357142D01*
X206523809Y-60357142D01*
X206428571Y-60404761D01*
X206380952Y-60452380D01*
X206333333Y-60547619D01*
X206333333Y-60738095D01*
X206380952Y-60833333D01*
X206428571Y-60880952D01*
X206523809Y-60928571D01*
X206285714Y-59928571D02*
X207285714Y-59928571D01*
X206333333Y-59928571D02*
X206285714Y-59833333D01*
X206285714Y-59642857D01*
X206333333Y-59547619D01*
X206380952Y-59500000D01*
X206476190Y-59452380D01*
X206761904Y-59452380D01*
X206857142Y-59500000D01*
X206904761Y-59547619D01*
X206952380Y-59642857D01*
X206952380Y-59833333D01*
X206904761Y-59928571D01*
X206952380Y-59023809D02*
X206285714Y-59023809D01*
X205952380Y-59023809D02*
X206000000Y-59071428D01*
X206047619Y-59023809D01*
X206000000Y-58976190D01*
X205952380Y-59023809D01*
X206047619Y-59023809D01*
X206285714Y-58547619D02*
X206952380Y-58547619D01*
X206380952Y-58547619D02*
X206333333Y-58500000D01*
X206285714Y-58404761D01*
X206285714Y-58261904D01*
X206333333Y-58166666D01*
X206428571Y-58119047D01*
X206952380Y-58119047D01*
X156952380Y-71880952D02*
X157761904Y-71880952D01*
X157857142Y-71833333D01*
X157904761Y-71785714D01*
X157952380Y-71690476D01*
X157952380Y-71500000D01*
X157904761Y-71404761D01*
X157857142Y-71357142D01*
X157761904Y-71309523D01*
X156952380Y-71309523D01*
X157904761Y-70880952D02*
X157952380Y-70738095D01*
X157952380Y-70500000D01*
X157904761Y-70404761D01*
X157857142Y-70357142D01*
X157761904Y-70309523D01*
X157666666Y-70309523D01*
X157571428Y-70357142D01*
X157523809Y-70404761D01*
X157476190Y-70500000D01*
X157428571Y-70690476D01*
X157380952Y-70785714D01*
X157333333Y-70833333D01*
X157238095Y-70880952D01*
X157142857Y-70880952D01*
X157047619Y-70833333D01*
X157000000Y-70785714D01*
X156952380Y-70690476D01*
X156952380Y-70452380D01*
X157000000Y-70309523D01*
X157428571Y-69547619D02*
X157476190Y-69404761D01*
X157523809Y-69357142D01*
X157619047Y-69309523D01*
X157761904Y-69309523D01*
X157857142Y-69357142D01*
X157904761Y-69404761D01*
X157952380Y-69500000D01*
X157952380Y-69880952D01*
X156952380Y-69880952D01*
X156952380Y-69547619D01*
X157000000Y-69452380D01*
X157047619Y-69404761D01*
X157142857Y-69357142D01*
X157238095Y-69357142D01*
X157333333Y-69404761D01*
X157380952Y-69452380D01*
X157428571Y-69547619D01*
X157428571Y-69880952D01*
X156952380Y-68261904D02*
X156952380Y-67690476D01*
X157952380Y-67976190D02*
X156952380Y-67976190D01*
X157285714Y-67452380D02*
X157952380Y-67214285D01*
X157285714Y-66976190D02*
X157952380Y-67214285D01*
X158190476Y-67309523D01*
X158238095Y-67357142D01*
X158285714Y-67452380D01*
X157285714Y-66595238D02*
X158285714Y-66595238D01*
X157333333Y-66595238D02*
X157285714Y-66500000D01*
X157285714Y-66309523D01*
X157333333Y-66214285D01*
X157380952Y-66166666D01*
X157476190Y-66119047D01*
X157761904Y-66119047D01*
X157857142Y-66166666D01*
X157904761Y-66214285D01*
X157952380Y-66309523D01*
X157952380Y-66500000D01*
X157904761Y-66595238D01*
X157904761Y-65309523D02*
X157952380Y-65404761D01*
X157952380Y-65595238D01*
X157904761Y-65690476D01*
X157809523Y-65738095D01*
X157428571Y-65738095D01*
X157333333Y-65690476D01*
X157285714Y-65595238D01*
X157285714Y-65404761D01*
X157333333Y-65309523D01*
X157428571Y-65261904D01*
X157523809Y-65261904D01*
X157619047Y-65738095D01*
X157571428Y-64833333D02*
X157571428Y-64071428D01*
X157857142Y-63023809D02*
X157904761Y-63071428D01*
X157952380Y-63214285D01*
X157952380Y-63309523D01*
X157904761Y-63452380D01*
X157809523Y-63547619D01*
X157714285Y-63595238D01*
X157523809Y-63642857D01*
X157380952Y-63642857D01*
X157190476Y-63595238D01*
X157095238Y-63547619D01*
X157000000Y-63452380D01*
X156952380Y-63309523D01*
X156952380Y-63214285D01*
X157000000Y-63071428D01*
X157047619Y-63023809D01*
X157952380Y-61309523D02*
X157952380Y-61880952D01*
X157952380Y-61595238D02*
X156952380Y-61595238D01*
X157095238Y-61690476D01*
X157190476Y-61785714D01*
X157238095Y-61880952D01*
X156952380Y-60452380D02*
X156952380Y-60642857D01*
X157000000Y-60738095D01*
X157047619Y-60785714D01*
X157190476Y-60880952D01*
X157380952Y-60928571D01*
X157761904Y-60928571D01*
X157857142Y-60880952D01*
X157904761Y-60833333D01*
X157952380Y-60738095D01*
X157952380Y-60547619D01*
X157904761Y-60452380D01*
X157857142Y-60404761D01*
X157761904Y-60357142D01*
X157523809Y-60357142D01*
X157428571Y-60404761D01*
X157380952Y-60452380D01*
X157333333Y-60547619D01*
X157333333Y-60738095D01*
X157380952Y-60833333D01*
X157428571Y-60880952D01*
X157523809Y-60928571D01*
X157285714Y-59928571D02*
X158285714Y-59928571D01*
X157333333Y-59928571D02*
X157285714Y-59833333D01*
X157285714Y-59642857D01*
X157333333Y-59547619D01*
X157380952Y-59500000D01*
X157476190Y-59452380D01*
X157761904Y-59452380D01*
X157857142Y-59500000D01*
X157904761Y-59547619D01*
X157952380Y-59642857D01*
X157952380Y-59833333D01*
X157904761Y-59928571D01*
X157952380Y-59023809D02*
X157285714Y-59023809D01*
X156952380Y-59023809D02*
X157000000Y-59071428D01*
X157047619Y-59023809D01*
X157000000Y-58976190D01*
X156952380Y-59023809D01*
X157047619Y-59023809D01*
X157285714Y-58547619D02*
X157952380Y-58547619D01*
X157380952Y-58547619D02*
X157333333Y-58500000D01*
X157285714Y-58404761D01*
X157285714Y-58261904D01*
X157333333Y-58166666D01*
X157428571Y-58119047D01*
X157952380Y-58119047D01*
X205952380Y-111880952D02*
X206761904Y-111880952D01*
X206857142Y-111833333D01*
X206904761Y-111785714D01*
X206952380Y-111690476D01*
X206952380Y-111500000D01*
X206904761Y-111404761D01*
X206857142Y-111357142D01*
X206761904Y-111309523D01*
X205952380Y-111309523D01*
X206904761Y-110880952D02*
X206952380Y-110738095D01*
X206952380Y-110500000D01*
X206904761Y-110404761D01*
X206857142Y-110357142D01*
X206761904Y-110309523D01*
X206666666Y-110309523D01*
X206571428Y-110357142D01*
X206523809Y-110404761D01*
X206476190Y-110500000D01*
X206428571Y-110690476D01*
X206380952Y-110785714D01*
X206333333Y-110833333D01*
X206238095Y-110880952D01*
X206142857Y-110880952D01*
X206047619Y-110833333D01*
X206000000Y-110785714D01*
X205952380Y-110690476D01*
X205952380Y-110452380D01*
X206000000Y-110309523D01*
X206428571Y-109547619D02*
X206476190Y-109404761D01*
X206523809Y-109357142D01*
X206619047Y-109309523D01*
X206761904Y-109309523D01*
X206857142Y-109357142D01*
X206904761Y-109404761D01*
X206952380Y-109500000D01*
X206952380Y-109880952D01*
X205952380Y-109880952D01*
X205952380Y-109547619D01*
X206000000Y-109452380D01*
X206047619Y-109404761D01*
X206142857Y-109357142D01*
X206238095Y-109357142D01*
X206333333Y-109404761D01*
X206380952Y-109452380D01*
X206428571Y-109547619D01*
X206428571Y-109880952D01*
X205952380Y-108261904D02*
X205952380Y-107690476D01*
X206952380Y-107976190D02*
X205952380Y-107976190D01*
X206285714Y-107452380D02*
X206952380Y-107214285D01*
X206285714Y-106976190D02*
X206952380Y-107214285D01*
X207190476Y-107309523D01*
X207238095Y-107357142D01*
X207285714Y-107452380D01*
X206285714Y-106595238D02*
X207285714Y-106595238D01*
X206333333Y-106595238D02*
X206285714Y-106500000D01*
X206285714Y-106309523D01*
X206333333Y-106214285D01*
X206380952Y-106166666D01*
X206476190Y-106119047D01*
X206761904Y-106119047D01*
X206857142Y-106166666D01*
X206904761Y-106214285D01*
X206952380Y-106309523D01*
X206952380Y-106500000D01*
X206904761Y-106595238D01*
X206904761Y-105309523D02*
X206952380Y-105404761D01*
X206952380Y-105595238D01*
X206904761Y-105690476D01*
X206809523Y-105738095D01*
X206428571Y-105738095D01*
X206333333Y-105690476D01*
X206285714Y-105595238D01*
X206285714Y-105404761D01*
X206333333Y-105309523D01*
X206428571Y-105261904D01*
X206523809Y-105261904D01*
X206619047Y-105738095D01*
X206571428Y-104833333D02*
X206571428Y-104071428D01*
X206857142Y-103023809D02*
X206904761Y-103071428D01*
X206952380Y-103214285D01*
X206952380Y-103309523D01*
X206904761Y-103452380D01*
X206809523Y-103547619D01*
X206714285Y-103595238D01*
X206523809Y-103642857D01*
X206380952Y-103642857D01*
X206190476Y-103595238D01*
X206095238Y-103547619D01*
X206000000Y-103452380D01*
X205952380Y-103309523D01*
X205952380Y-103214285D01*
X206000000Y-103071428D01*
X206047619Y-103023809D01*
X206952380Y-101309523D02*
X206952380Y-101880952D01*
X206952380Y-101595238D02*
X205952380Y-101595238D01*
X206095238Y-101690476D01*
X206190476Y-101785714D01*
X206238095Y-101880952D01*
X205952380Y-100452380D02*
X205952380Y-100642857D01*
X206000000Y-100738095D01*
X206047619Y-100785714D01*
X206190476Y-100880952D01*
X206380952Y-100928571D01*
X206761904Y-100928571D01*
X206857142Y-100880952D01*
X206904761Y-100833333D01*
X206952380Y-100738095D01*
X206952380Y-100547619D01*
X206904761Y-100452380D01*
X206857142Y-100404761D01*
X206761904Y-100357142D01*
X206523809Y-100357142D01*
X206428571Y-100404761D01*
X206380952Y-100452380D01*
X206333333Y-100547619D01*
X206333333Y-100738095D01*
X206380952Y-100833333D01*
X206428571Y-100880952D01*
X206523809Y-100928571D01*
X206285714Y-99928571D02*
X207285714Y-99928571D01*
X206333333Y-99928571D02*
X206285714Y-99833333D01*
X206285714Y-99642857D01*
X206333333Y-99547619D01*
X206380952Y-99500000D01*
X206476190Y-99452380D01*
X206761904Y-99452380D01*
X206857142Y-99500000D01*
X206904761Y-99547619D01*
X206952380Y-99642857D01*
X206952380Y-99833333D01*
X206904761Y-99928571D01*
X206952380Y-99023809D02*
X206285714Y-99023809D01*
X205952380Y-99023809D02*
X206000000Y-99071428D01*
X206047619Y-99023809D01*
X206000000Y-98976190D01*
X205952380Y-99023809D01*
X206047619Y-99023809D01*
X206285714Y-98547619D02*
X206952380Y-98547619D01*
X206380952Y-98547619D02*
X206333333Y-98500000D01*
X206285714Y-98404761D01*
X206285714Y-98261904D01*
X206333333Y-98166666D01*
X206428571Y-98119047D01*
X206952380Y-98119047D01*
X205952380Y-88904761D02*
X206761904Y-88904761D01*
X206857142Y-88857142D01*
X206904761Y-88809523D01*
X206952380Y-88714285D01*
X206952380Y-88523809D01*
X206904761Y-88428571D01*
X206857142Y-88380952D01*
X206761904Y-88333333D01*
X205952380Y-88333333D01*
X206904761Y-87904761D02*
X206952380Y-87761904D01*
X206952380Y-87523809D01*
X206904761Y-87428571D01*
X206857142Y-87380952D01*
X206761904Y-87333333D01*
X206666666Y-87333333D01*
X206571428Y-87380952D01*
X206523809Y-87428571D01*
X206476190Y-87523809D01*
X206428571Y-87714285D01*
X206380952Y-87809523D01*
X206333333Y-87857142D01*
X206238095Y-87904761D01*
X206142857Y-87904761D01*
X206047619Y-87857142D01*
X206000000Y-87809523D01*
X205952380Y-87714285D01*
X205952380Y-87476190D01*
X206000000Y-87333333D01*
X206428571Y-86571428D02*
X206476190Y-86428571D01*
X206523809Y-86380952D01*
X206619047Y-86333333D01*
X206761904Y-86333333D01*
X206857142Y-86380952D01*
X206904761Y-86428571D01*
X206952380Y-86523809D01*
X206952380Y-86904761D01*
X205952380Y-86904761D01*
X205952380Y-86571428D01*
X206000000Y-86476190D01*
X206047619Y-86428571D01*
X206142857Y-86380952D01*
X206238095Y-86380952D01*
X206333333Y-86428571D01*
X206380952Y-86476190D01*
X206428571Y-86571428D01*
X206428571Y-86904761D01*
X205952380Y-85285714D02*
X205952380Y-84714285D01*
X206952380Y-85000000D02*
X205952380Y-85000000D01*
X206285714Y-84476190D02*
X206952380Y-84238095D01*
X206285714Y-84000000D02*
X206952380Y-84238095D01*
X207190476Y-84333333D01*
X207238095Y-84380952D01*
X207285714Y-84476190D01*
X206285714Y-83619047D02*
X207285714Y-83619047D01*
X206333333Y-83619047D02*
X206285714Y-83523809D01*
X206285714Y-83333333D01*
X206333333Y-83238095D01*
X206380952Y-83190476D01*
X206476190Y-83142857D01*
X206761904Y-83142857D01*
X206857142Y-83190476D01*
X206904761Y-83238095D01*
X206952380Y-83333333D01*
X206952380Y-83523809D01*
X206904761Y-83619047D01*
X206904761Y-82333333D02*
X206952380Y-82428571D01*
X206952380Y-82619047D01*
X206904761Y-82714285D01*
X206809523Y-82761904D01*
X206428571Y-82761904D01*
X206333333Y-82714285D01*
X206285714Y-82619047D01*
X206285714Y-82428571D01*
X206333333Y-82333333D01*
X206428571Y-82285714D01*
X206523809Y-82285714D01*
X206619047Y-82761904D01*
X206571428Y-81857142D02*
X206571428Y-81095238D01*
X206857142Y-80047619D02*
X206904761Y-80095238D01*
X206952380Y-80238095D01*
X206952380Y-80333333D01*
X206904761Y-80476190D01*
X206809523Y-80571428D01*
X206714285Y-80619047D01*
X206523809Y-80666666D01*
X206380952Y-80666666D01*
X206190476Y-80619047D01*
X206095238Y-80571428D01*
X206000000Y-80476190D01*
X205952380Y-80333333D01*
X205952380Y-80238095D01*
X206000000Y-80095238D01*
X206047619Y-80047619D01*
X205952380Y-78428571D02*
X205952380Y-78619047D01*
X206000000Y-78714285D01*
X206047619Y-78761904D01*
X206190476Y-78857142D01*
X206380952Y-78904761D01*
X206761904Y-78904761D01*
X206857142Y-78857142D01*
X206904761Y-78809523D01*
X206952380Y-78714285D01*
X206952380Y-78523809D01*
X206904761Y-78428571D01*
X206857142Y-78380952D01*
X206761904Y-78333333D01*
X206523809Y-78333333D01*
X206428571Y-78380952D01*
X206380952Y-78428571D01*
X206333333Y-78523809D01*
X206333333Y-78714285D01*
X206380952Y-78809523D01*
X206428571Y-78857142D01*
X206523809Y-78904761D01*
X206285714Y-77904761D02*
X207285714Y-77904761D01*
X206333333Y-77904761D02*
X206285714Y-77809523D01*
X206285714Y-77619047D01*
X206333333Y-77523809D01*
X206380952Y-77476190D01*
X206476190Y-77428571D01*
X206761904Y-77428571D01*
X206857142Y-77476190D01*
X206904761Y-77523809D01*
X206952380Y-77619047D01*
X206952380Y-77809523D01*
X206904761Y-77904761D01*
X206952380Y-77000000D02*
X206285714Y-77000000D01*
X205952380Y-77000000D02*
X206000000Y-77047619D01*
X206047619Y-77000000D01*
X206000000Y-76952380D01*
X205952380Y-77000000D01*
X206047619Y-77000000D01*
X206285714Y-76523809D02*
X206952380Y-76523809D01*
X206380952Y-76523809D02*
X206333333Y-76476190D01*
X206285714Y-76380952D01*
X206285714Y-76238095D01*
X206333333Y-76142857D01*
X206428571Y-76095238D01*
X206952380Y-76095238D01*
X156952380Y-88904761D02*
X157761904Y-88904761D01*
X157857142Y-88857142D01*
X157904761Y-88809523D01*
X157952380Y-88714285D01*
X157952380Y-88523809D01*
X157904761Y-88428571D01*
X157857142Y-88380952D01*
X157761904Y-88333333D01*
X156952380Y-88333333D01*
X157904761Y-87904761D02*
X157952380Y-87761904D01*
X157952380Y-87523809D01*
X157904761Y-87428571D01*
X157857142Y-87380952D01*
X157761904Y-87333333D01*
X157666666Y-87333333D01*
X157571428Y-87380952D01*
X157523809Y-87428571D01*
X157476190Y-87523809D01*
X157428571Y-87714285D01*
X157380952Y-87809523D01*
X157333333Y-87857142D01*
X157238095Y-87904761D01*
X157142857Y-87904761D01*
X157047619Y-87857142D01*
X157000000Y-87809523D01*
X156952380Y-87714285D01*
X156952380Y-87476190D01*
X157000000Y-87333333D01*
X157428571Y-86571428D02*
X157476190Y-86428571D01*
X157523809Y-86380952D01*
X157619047Y-86333333D01*
X157761904Y-86333333D01*
X157857142Y-86380952D01*
X157904761Y-86428571D01*
X157952380Y-86523809D01*
X157952380Y-86904761D01*
X156952380Y-86904761D01*
X156952380Y-86571428D01*
X157000000Y-86476190D01*
X157047619Y-86428571D01*
X157142857Y-86380952D01*
X157238095Y-86380952D01*
X157333333Y-86428571D01*
X157380952Y-86476190D01*
X157428571Y-86571428D01*
X157428571Y-86904761D01*
X156952380Y-85285714D02*
X156952380Y-84714285D01*
X157952380Y-85000000D02*
X156952380Y-85000000D01*
X157285714Y-84476190D02*
X157952380Y-84238095D01*
X157285714Y-84000000D02*
X157952380Y-84238095D01*
X158190476Y-84333333D01*
X158238095Y-84380952D01*
X158285714Y-84476190D01*
X157285714Y-83619047D02*
X158285714Y-83619047D01*
X157333333Y-83619047D02*
X157285714Y-83523809D01*
X157285714Y-83333333D01*
X157333333Y-83238095D01*
X157380952Y-83190476D01*
X157476190Y-83142857D01*
X157761904Y-83142857D01*
X157857142Y-83190476D01*
X157904761Y-83238095D01*
X157952380Y-83333333D01*
X157952380Y-83523809D01*
X157904761Y-83619047D01*
X157904761Y-82333333D02*
X157952380Y-82428571D01*
X157952380Y-82619047D01*
X157904761Y-82714285D01*
X157809523Y-82761904D01*
X157428571Y-82761904D01*
X157333333Y-82714285D01*
X157285714Y-82619047D01*
X157285714Y-82428571D01*
X157333333Y-82333333D01*
X157428571Y-82285714D01*
X157523809Y-82285714D01*
X157619047Y-82761904D01*
X157571428Y-81857142D02*
X157571428Y-81095238D01*
X157857142Y-80047619D02*
X157904761Y-80095238D01*
X157952380Y-80238095D01*
X157952380Y-80333333D01*
X157904761Y-80476190D01*
X157809523Y-80571428D01*
X157714285Y-80619047D01*
X157523809Y-80666666D01*
X157380952Y-80666666D01*
X157190476Y-80619047D01*
X157095238Y-80571428D01*
X157000000Y-80476190D01*
X156952380Y-80333333D01*
X156952380Y-80238095D01*
X157000000Y-80095238D01*
X157047619Y-80047619D01*
X156952380Y-78428571D02*
X156952380Y-78619047D01*
X157000000Y-78714285D01*
X157047619Y-78761904D01*
X157190476Y-78857142D01*
X157380952Y-78904761D01*
X157761904Y-78904761D01*
X157857142Y-78857142D01*
X157904761Y-78809523D01*
X157952380Y-78714285D01*
X157952380Y-78523809D01*
X157904761Y-78428571D01*
X157857142Y-78380952D01*
X157761904Y-78333333D01*
X157523809Y-78333333D01*
X157428571Y-78380952D01*
X157380952Y-78428571D01*
X157333333Y-78523809D01*
X157333333Y-78714285D01*
X157380952Y-78809523D01*
X157428571Y-78857142D01*
X157523809Y-78904761D01*
X157285714Y-77904761D02*
X158285714Y-77904761D01*
X157333333Y-77904761D02*
X157285714Y-77809523D01*
X157285714Y-77619047D01*
X157333333Y-77523809D01*
X157380952Y-77476190D01*
X157476190Y-77428571D01*
X157761904Y-77428571D01*
X157857142Y-77476190D01*
X157904761Y-77523809D01*
X157952380Y-77619047D01*
X157952380Y-77809523D01*
X157904761Y-77904761D01*
X157952380Y-77000000D02*
X157285714Y-77000000D01*
X156952380Y-77000000D02*
X157000000Y-77047619D01*
X157047619Y-77000000D01*
X157000000Y-76952380D01*
X156952380Y-77000000D01*
X157047619Y-77000000D01*
X157285714Y-76523809D02*
X157952380Y-76523809D01*
X157380952Y-76523809D02*
X157333333Y-76476190D01*
X157285714Y-76380952D01*
X157285714Y-76238095D01*
X157333333Y-76142857D01*
X157428571Y-76095238D01*
X157952380Y-76095238D01*
X205952380Y-128904761D02*
X206761904Y-128904761D01*
X206857142Y-128857142D01*
X206904761Y-128809523D01*
X206952380Y-128714285D01*
X206952380Y-128523809D01*
X206904761Y-128428571D01*
X206857142Y-128380952D01*
X206761904Y-128333333D01*
X205952380Y-128333333D01*
X206904761Y-127904761D02*
X206952380Y-127761904D01*
X206952380Y-127523809D01*
X206904761Y-127428571D01*
X206857142Y-127380952D01*
X206761904Y-127333333D01*
X206666666Y-127333333D01*
X206571428Y-127380952D01*
X206523809Y-127428571D01*
X206476190Y-127523809D01*
X206428571Y-127714285D01*
X206380952Y-127809523D01*
X206333333Y-127857142D01*
X206238095Y-127904761D01*
X206142857Y-127904761D01*
X206047619Y-127857142D01*
X206000000Y-127809523D01*
X205952380Y-127714285D01*
X205952380Y-127476190D01*
X206000000Y-127333333D01*
X206428571Y-126571428D02*
X206476190Y-126428571D01*
X206523809Y-126380952D01*
X206619047Y-126333333D01*
X206761904Y-126333333D01*
X206857142Y-126380952D01*
X206904761Y-126428571D01*
X206952380Y-126523809D01*
X206952380Y-126904761D01*
X205952380Y-126904761D01*
X205952380Y-126571428D01*
X206000000Y-126476190D01*
X206047619Y-126428571D01*
X206142857Y-126380952D01*
X206238095Y-126380952D01*
X206333333Y-126428571D01*
X206380952Y-126476190D01*
X206428571Y-126571428D01*
X206428571Y-126904761D01*
X205952380Y-125285714D02*
X205952380Y-124714285D01*
X206952380Y-125000000D02*
X205952380Y-125000000D01*
X206285714Y-124476190D02*
X206952380Y-124238095D01*
X206285714Y-124000000D02*
X206952380Y-124238095D01*
X207190476Y-124333333D01*
X207238095Y-124380952D01*
X207285714Y-124476190D01*
X206285714Y-123619047D02*
X207285714Y-123619047D01*
X206333333Y-123619047D02*
X206285714Y-123523809D01*
X206285714Y-123333333D01*
X206333333Y-123238095D01*
X206380952Y-123190476D01*
X206476190Y-123142857D01*
X206761904Y-123142857D01*
X206857142Y-123190476D01*
X206904761Y-123238095D01*
X206952380Y-123333333D01*
X206952380Y-123523809D01*
X206904761Y-123619047D01*
X206904761Y-122333333D02*
X206952380Y-122428571D01*
X206952380Y-122619047D01*
X206904761Y-122714285D01*
X206809523Y-122761904D01*
X206428571Y-122761904D01*
X206333333Y-122714285D01*
X206285714Y-122619047D01*
X206285714Y-122428571D01*
X206333333Y-122333333D01*
X206428571Y-122285714D01*
X206523809Y-122285714D01*
X206619047Y-122761904D01*
X206571428Y-121857142D02*
X206571428Y-121095238D01*
X206857142Y-120047619D02*
X206904761Y-120095238D01*
X206952380Y-120238095D01*
X206952380Y-120333333D01*
X206904761Y-120476190D01*
X206809523Y-120571428D01*
X206714285Y-120619047D01*
X206523809Y-120666666D01*
X206380952Y-120666666D01*
X206190476Y-120619047D01*
X206095238Y-120571428D01*
X206000000Y-120476190D01*
X205952380Y-120333333D01*
X205952380Y-120238095D01*
X206000000Y-120095238D01*
X206047619Y-120047619D01*
X205952380Y-118428571D02*
X205952380Y-118619047D01*
X206000000Y-118714285D01*
X206047619Y-118761904D01*
X206190476Y-118857142D01*
X206380952Y-118904761D01*
X206761904Y-118904761D01*
X206857142Y-118857142D01*
X206904761Y-118809523D01*
X206952380Y-118714285D01*
X206952380Y-118523809D01*
X206904761Y-118428571D01*
X206857142Y-118380952D01*
X206761904Y-118333333D01*
X206523809Y-118333333D01*
X206428571Y-118380952D01*
X206380952Y-118428571D01*
X206333333Y-118523809D01*
X206333333Y-118714285D01*
X206380952Y-118809523D01*
X206428571Y-118857142D01*
X206523809Y-118904761D01*
X206285714Y-117904761D02*
X207285714Y-117904761D01*
X206333333Y-117904761D02*
X206285714Y-117809523D01*
X206285714Y-117619047D01*
X206333333Y-117523809D01*
X206380952Y-117476190D01*
X206476190Y-117428571D01*
X206761904Y-117428571D01*
X206857142Y-117476190D01*
X206904761Y-117523809D01*
X206952380Y-117619047D01*
X206952380Y-117809523D01*
X206904761Y-117904761D01*
X206952380Y-117000000D02*
X206285714Y-117000000D01*
X205952380Y-117000000D02*
X206000000Y-117047619D01*
X206047619Y-117000000D01*
X206000000Y-116952380D01*
X205952380Y-117000000D01*
X206047619Y-117000000D01*
X206285714Y-116523809D02*
X206952380Y-116523809D01*
X206380952Y-116523809D02*
X206333333Y-116476190D01*
X206285714Y-116380952D01*
X206285714Y-116238095D01*
X206333333Y-116142857D01*
X206428571Y-116095238D01*
X206952380Y-116095238D01*
X175952380Y-85666666D02*
X176761904Y-85666666D01*
X176857142Y-85619047D01*
X176904761Y-85571428D01*
X176952380Y-85476190D01*
X176952380Y-85285714D01*
X176904761Y-85190476D01*
X176857142Y-85142857D01*
X176761904Y-85095238D01*
X175952380Y-85095238D01*
X176904761Y-84666666D02*
X176952380Y-84523809D01*
X176952380Y-84285714D01*
X176904761Y-84190476D01*
X176857142Y-84142857D01*
X176761904Y-84095238D01*
X176666666Y-84095238D01*
X176571428Y-84142857D01*
X176523809Y-84190476D01*
X176476190Y-84285714D01*
X176428571Y-84476190D01*
X176380952Y-84571428D01*
X176333333Y-84619047D01*
X176238095Y-84666666D01*
X176142857Y-84666666D01*
X176047619Y-84619047D01*
X176000000Y-84571428D01*
X175952380Y-84476190D01*
X175952380Y-84238095D01*
X176000000Y-84095238D01*
X176428571Y-83333333D02*
X176476190Y-83190476D01*
X176523809Y-83142857D01*
X176619047Y-83095238D01*
X176761904Y-83095238D01*
X176857142Y-83142857D01*
X176904761Y-83190476D01*
X176952380Y-83285714D01*
X176952380Y-83666666D01*
X175952380Y-83666666D01*
X175952380Y-83333333D01*
X176000000Y-83238095D01*
X176047619Y-83190476D01*
X176142857Y-83142857D01*
X176238095Y-83142857D01*
X176333333Y-83190476D01*
X176380952Y-83238095D01*
X176428571Y-83333333D01*
X176428571Y-83666666D01*
X176285714Y-82238095D02*
X176952380Y-82238095D01*
X175904761Y-82476190D02*
X176619047Y-82714285D01*
X176619047Y-82095238D01*
X175952380Y-81523809D02*
X175952380Y-81428571D01*
X176000000Y-81333333D01*
X176047619Y-81285714D01*
X176142857Y-81238095D01*
X176333333Y-81190476D01*
X176571428Y-81190476D01*
X176761904Y-81238095D01*
X176857142Y-81285714D01*
X176904761Y-81333333D01*
X176952380Y-81428571D01*
X176952380Y-81523809D01*
X176904761Y-81619047D01*
X176857142Y-81666666D01*
X176761904Y-81714285D01*
X176571428Y-81761904D01*
X176333333Y-81761904D01*
X176142857Y-81714285D01*
X176047619Y-81666666D01*
X176000000Y-81619047D01*
X175952380Y-81523809D01*
X176380952Y-80619047D02*
X176333333Y-80714285D01*
X176285714Y-80761904D01*
X176190476Y-80809523D01*
X176142857Y-80809523D01*
X176047619Y-80761904D01*
X176000000Y-80714285D01*
X175952380Y-80619047D01*
X175952380Y-80428571D01*
X176000000Y-80333333D01*
X176047619Y-80285714D01*
X176142857Y-80238095D01*
X176190476Y-80238095D01*
X176285714Y-80285714D01*
X176333333Y-80333333D01*
X176380952Y-80428571D01*
X176380952Y-80619047D01*
X176428571Y-80714285D01*
X176476190Y-80761904D01*
X176571428Y-80809523D01*
X176761904Y-80809523D01*
X176857142Y-80761904D01*
X176904761Y-80714285D01*
X176952380Y-80619047D01*
X176952380Y-80428571D01*
X176904761Y-80333333D01*
X176857142Y-80285714D01*
X176761904Y-80238095D01*
X176571428Y-80238095D01*
X176476190Y-80285714D01*
X176428571Y-80333333D01*
X176380952Y-80428571D01*
X175952380Y-79333333D02*
X175952380Y-79809523D01*
X176428571Y-79857142D01*
X176380952Y-79809523D01*
X176333333Y-79714285D01*
X176333333Y-79476190D01*
X176380952Y-79380952D01*
X176428571Y-79333333D01*
X176523809Y-79285714D01*
X176761904Y-79285714D01*
X176857142Y-79333333D01*
X176904761Y-79380952D01*
X176952380Y-79476190D01*
X176952380Y-79714285D01*
X176904761Y-79809523D01*
X176857142Y-79857142D01*
X126952380Y-85666666D02*
X127761904Y-85666666D01*
X127857142Y-85619047D01*
X127904761Y-85571428D01*
X127952380Y-85476190D01*
X127952380Y-85285714D01*
X127904761Y-85190476D01*
X127857142Y-85142857D01*
X127761904Y-85095238D01*
X126952380Y-85095238D01*
X127904761Y-84666666D02*
X127952380Y-84523809D01*
X127952380Y-84285714D01*
X127904761Y-84190476D01*
X127857142Y-84142857D01*
X127761904Y-84095238D01*
X127666666Y-84095238D01*
X127571428Y-84142857D01*
X127523809Y-84190476D01*
X127476190Y-84285714D01*
X127428571Y-84476190D01*
X127380952Y-84571428D01*
X127333333Y-84619047D01*
X127238095Y-84666666D01*
X127142857Y-84666666D01*
X127047619Y-84619047D01*
X127000000Y-84571428D01*
X126952380Y-84476190D01*
X126952380Y-84238095D01*
X127000000Y-84095238D01*
X127428571Y-83333333D02*
X127476190Y-83190476D01*
X127523809Y-83142857D01*
X127619047Y-83095238D01*
X127761904Y-83095238D01*
X127857142Y-83142857D01*
X127904761Y-83190476D01*
X127952380Y-83285714D01*
X127952380Y-83666666D01*
X126952380Y-83666666D01*
X126952380Y-83333333D01*
X127000000Y-83238095D01*
X127047619Y-83190476D01*
X127142857Y-83142857D01*
X127238095Y-83142857D01*
X127333333Y-83190476D01*
X127380952Y-83238095D01*
X127428571Y-83333333D01*
X127428571Y-83666666D01*
X127285714Y-82238095D02*
X127952380Y-82238095D01*
X126904761Y-82476190D02*
X127619047Y-82714285D01*
X127619047Y-82095238D01*
X126952380Y-81523809D02*
X126952380Y-81428571D01*
X127000000Y-81333333D01*
X127047619Y-81285714D01*
X127142857Y-81238095D01*
X127333333Y-81190476D01*
X127571428Y-81190476D01*
X127761904Y-81238095D01*
X127857142Y-81285714D01*
X127904761Y-81333333D01*
X127952380Y-81428571D01*
X127952380Y-81523809D01*
X127904761Y-81619047D01*
X127857142Y-81666666D01*
X127761904Y-81714285D01*
X127571428Y-81761904D01*
X127333333Y-81761904D01*
X127142857Y-81714285D01*
X127047619Y-81666666D01*
X127000000Y-81619047D01*
X126952380Y-81523809D01*
X127380952Y-80619047D02*
X127333333Y-80714285D01*
X127285714Y-80761904D01*
X127190476Y-80809523D01*
X127142857Y-80809523D01*
X127047619Y-80761904D01*
X127000000Y-80714285D01*
X126952380Y-80619047D01*
X126952380Y-80428571D01*
X127000000Y-80333333D01*
X127047619Y-80285714D01*
X127142857Y-80238095D01*
X127190476Y-80238095D01*
X127285714Y-80285714D01*
X127333333Y-80333333D01*
X127380952Y-80428571D01*
X127380952Y-80619047D01*
X127428571Y-80714285D01*
X127476190Y-80761904D01*
X127571428Y-80809523D01*
X127761904Y-80809523D01*
X127857142Y-80761904D01*
X127904761Y-80714285D01*
X127952380Y-80619047D01*
X127952380Y-80428571D01*
X127904761Y-80333333D01*
X127857142Y-80285714D01*
X127761904Y-80238095D01*
X127571428Y-80238095D01*
X127476190Y-80285714D01*
X127428571Y-80333333D01*
X127380952Y-80428571D01*
X126952380Y-79333333D02*
X126952380Y-79809523D01*
X127428571Y-79857142D01*
X127380952Y-79809523D01*
X127333333Y-79714285D01*
X127333333Y-79476190D01*
X127380952Y-79380952D01*
X127428571Y-79333333D01*
X127523809Y-79285714D01*
X127761904Y-79285714D01*
X127857142Y-79333333D01*
X127904761Y-79380952D01*
X127952380Y-79476190D01*
X127952380Y-79714285D01*
X127904761Y-79809523D01*
X127857142Y-79857142D01*
X175952380Y-125666666D02*
X176761904Y-125666666D01*
X176857142Y-125619047D01*
X176904761Y-125571428D01*
X176952380Y-125476190D01*
X176952380Y-125285714D01*
X176904761Y-125190476D01*
X176857142Y-125142857D01*
X176761904Y-125095238D01*
X175952380Y-125095238D01*
X176904761Y-124666666D02*
X176952380Y-124523809D01*
X176952380Y-124285714D01*
X176904761Y-124190476D01*
X176857142Y-124142857D01*
X176761904Y-124095238D01*
X176666666Y-124095238D01*
X176571428Y-124142857D01*
X176523809Y-124190476D01*
X176476190Y-124285714D01*
X176428571Y-124476190D01*
X176380952Y-124571428D01*
X176333333Y-124619047D01*
X176238095Y-124666666D01*
X176142857Y-124666666D01*
X176047619Y-124619047D01*
X176000000Y-124571428D01*
X175952380Y-124476190D01*
X175952380Y-124238095D01*
X176000000Y-124095238D01*
X176428571Y-123333333D02*
X176476190Y-123190476D01*
X176523809Y-123142857D01*
X176619047Y-123095238D01*
X176761904Y-123095238D01*
X176857142Y-123142857D01*
X176904761Y-123190476D01*
X176952380Y-123285714D01*
X176952380Y-123666666D01*
X175952380Y-123666666D01*
X175952380Y-123333333D01*
X176000000Y-123238095D01*
X176047619Y-123190476D01*
X176142857Y-123142857D01*
X176238095Y-123142857D01*
X176333333Y-123190476D01*
X176380952Y-123238095D01*
X176428571Y-123333333D01*
X176428571Y-123666666D01*
X176285714Y-122238095D02*
X176952380Y-122238095D01*
X175904761Y-122476190D02*
X176619047Y-122714285D01*
X176619047Y-122095238D01*
X175952380Y-121523809D02*
X175952380Y-121428571D01*
X176000000Y-121333333D01*
X176047619Y-121285714D01*
X176142857Y-121238095D01*
X176333333Y-121190476D01*
X176571428Y-121190476D01*
X176761904Y-121238095D01*
X176857142Y-121285714D01*
X176904761Y-121333333D01*
X176952380Y-121428571D01*
X176952380Y-121523809D01*
X176904761Y-121619047D01*
X176857142Y-121666666D01*
X176761904Y-121714285D01*
X176571428Y-121761904D01*
X176333333Y-121761904D01*
X176142857Y-121714285D01*
X176047619Y-121666666D01*
X176000000Y-121619047D01*
X175952380Y-121523809D01*
X176380952Y-120619047D02*
X176333333Y-120714285D01*
X176285714Y-120761904D01*
X176190476Y-120809523D01*
X176142857Y-120809523D01*
X176047619Y-120761904D01*
X176000000Y-120714285D01*
X175952380Y-120619047D01*
X175952380Y-120428571D01*
X176000000Y-120333333D01*
X176047619Y-120285714D01*
X176142857Y-120238095D01*
X176190476Y-120238095D01*
X176285714Y-120285714D01*
X176333333Y-120333333D01*
X176380952Y-120428571D01*
X176380952Y-120619047D01*
X176428571Y-120714285D01*
X176476190Y-120761904D01*
X176571428Y-120809523D01*
X176761904Y-120809523D01*
X176857142Y-120761904D01*
X176904761Y-120714285D01*
X176952380Y-120619047D01*
X176952380Y-120428571D01*
X176904761Y-120333333D01*
X176857142Y-120285714D01*
X176761904Y-120238095D01*
X176571428Y-120238095D01*
X176476190Y-120285714D01*
X176428571Y-120333333D01*
X176380952Y-120428571D01*
X175952380Y-119333333D02*
X175952380Y-119809523D01*
X176428571Y-119857142D01*
X176380952Y-119809523D01*
X176333333Y-119714285D01*
X176333333Y-119476190D01*
X176380952Y-119380952D01*
X176428571Y-119333333D01*
X176523809Y-119285714D01*
X176761904Y-119285714D01*
X176857142Y-119333333D01*
X176904761Y-119380952D01*
X176952380Y-119476190D01*
X176952380Y-119714285D01*
X176904761Y-119809523D01*
X176857142Y-119857142D01*
D10*
X224000000Y-132000000D02*
X181000000Y-132000000D01*
X224000000Y-52000000D02*
X224000000Y-90000000D01*
X126000000Y-92000000D02*
X126000000Y-52000000D01*
X175000000Y-52000000D02*
X224000000Y-52000000D01*
X126000000Y-52000000D02*
X175000000Y-52000000D01*
X181000000Y-132000000D02*
X132000000Y-132000000D01*
D11*
X126952380Y-111880952D02*
X127761904Y-111880952D01*
X127857142Y-111833333D01*
X127904761Y-111785714D01*
X127952380Y-111690476D01*
X127952380Y-111500000D01*
X127904761Y-111404761D01*
X127857142Y-111357142D01*
X127761904Y-111309523D01*
X126952380Y-111309523D01*
X127904761Y-110880952D02*
X127952380Y-110738095D01*
X127952380Y-110500000D01*
X127904761Y-110404761D01*
X127857142Y-110357142D01*
X127761904Y-110309523D01*
X127666666Y-110309523D01*
X127571428Y-110357142D01*
X127523809Y-110404761D01*
X127476190Y-110500000D01*
X127428571Y-110690476D01*
X127380952Y-110785714D01*
X127333333Y-110833333D01*
X127238095Y-110880952D01*
X127142857Y-110880952D01*
X127047619Y-110833333D01*
X127000000Y-110785714D01*
X126952380Y-110690476D01*
X126952380Y-110452380D01*
X127000000Y-110309523D01*
X127428571Y-109547619D02*
X127476190Y-109404761D01*
X127523809Y-109357142D01*
X127619047Y-109309523D01*
X127761904Y-109309523D01*
X127857142Y-109357142D01*
X127904761Y-109404761D01*
X127952380Y-109500000D01*
X127952380Y-109880952D01*
X126952380Y-109880952D01*
X126952380Y-109547619D01*
X127000000Y-109452380D01*
X127047619Y-109404761D01*
X127142857Y-109357142D01*
X127238095Y-109357142D01*
X127333333Y-109404761D01*
X127380952Y-109452380D01*
X127428571Y-109547619D01*
X127428571Y-109880952D01*
X126952380Y-108261904D02*
X126952380Y-107690476D01*
X127952380Y-107976190D02*
X126952380Y-107976190D01*
X127285714Y-107452380D02*
X127952380Y-107214285D01*
X127285714Y-106976190D02*
X127952380Y-107214285D01*
X128190476Y-107309523D01*
X128238095Y-107357142D01*
X128285714Y-107452380D01*
X127285714Y-106595238D02*
X128285714Y-106595238D01*
X127333333Y-106595238D02*
X127285714Y-106500000D01*
X127285714Y-106309523D01*
X127333333Y-106214285D01*
X127380952Y-106166666D01*
X127476190Y-106119047D01*
X127761904Y-106119047D01*
X127857142Y-106166666D01*
X127904761Y-106214285D01*
X127952380Y-106309523D01*
X127952380Y-106500000D01*
X127904761Y-106595238D01*
X127904761Y-105309523D02*
X127952380Y-105404761D01*
X127952380Y-105595238D01*
X127904761Y-105690476D01*
X127809523Y-105738095D01*
X127428571Y-105738095D01*
X127333333Y-105690476D01*
X127285714Y-105595238D01*
X127285714Y-105404761D01*
X127333333Y-105309523D01*
X127428571Y-105261904D01*
X127523809Y-105261904D01*
X127619047Y-105738095D01*
X127571428Y-104833333D02*
X127571428Y-104071428D01*
X127857142Y-103023809D02*
X127904761Y-103071428D01*
X127952380Y-103214285D01*
X127952380Y-103309523D01*
X127904761Y-103452380D01*
X127809523Y-103547619D01*
X127714285Y-103595238D01*
X127523809Y-103642857D01*
X127380952Y-103642857D01*
X127190476Y-103595238D01*
X127095238Y-103547619D01*
X127000000Y-103452380D01*
X126952380Y-103309523D01*
X126952380Y-103214285D01*
X127000000Y-103071428D01*
X127047619Y-103023809D01*
X127047619Y-101880952D02*
X127000000Y-101833333D01*
X126952380Y-101738095D01*
X126952380Y-101500000D01*
X127000000Y-101404761D01*
X127047619Y-101357142D01*
X127142857Y-101309523D01*
X127238095Y-101309523D01*
X127380952Y-101357142D01*
X127952380Y-101928571D01*
X127952380Y-101309523D01*
X127285714Y-100452380D02*
X127952380Y-100452380D01*
X126904761Y-100690476D02*
X127619047Y-100928571D01*
X127619047Y-100309523D01*
X127285714Y-99928571D02*
X128285714Y-99928571D01*
X127333333Y-99928571D02*
X127285714Y-99833333D01*
X127285714Y-99642857D01*
X127333333Y-99547619D01*
X127380952Y-99500000D01*
X127476190Y-99452380D01*
X127761904Y-99452380D01*
X127857142Y-99500000D01*
X127904761Y-99547619D01*
X127952380Y-99642857D01*
X127952380Y-99833333D01*
X127904761Y-99928571D01*
X127952380Y-99023809D02*
X127285714Y-99023809D01*
X126952380Y-99023809D02*
X127000000Y-99071428D01*
X127047619Y-99023809D01*
X127000000Y-98976190D01*
X126952380Y-99023809D01*
X127047619Y-99023809D01*
X127285714Y-98547619D02*
X127952380Y-98547619D01*
X127380952Y-98547619D02*
X127333333Y-98500000D01*
X127285714Y-98404761D01*
X127285714Y-98261904D01*
X127333333Y-98166666D01*
X127428571Y-98119047D01*
X127952380Y-98119047D01*
X156952380Y-111880952D02*
X157761904Y-111880952D01*
X157857142Y-111833333D01*
X157904761Y-111785714D01*
X157952380Y-111690476D01*
X157952380Y-111500000D01*
X157904761Y-111404761D01*
X157857142Y-111357142D01*
X157761904Y-111309523D01*
X156952380Y-111309523D01*
X157904761Y-110880952D02*
X157952380Y-110738095D01*
X157952380Y-110500000D01*
X157904761Y-110404761D01*
X157857142Y-110357142D01*
X157761904Y-110309523D01*
X157666666Y-110309523D01*
X157571428Y-110357142D01*
X157523809Y-110404761D01*
X157476190Y-110500000D01*
X157428571Y-110690476D01*
X157380952Y-110785714D01*
X157333333Y-110833333D01*
X157238095Y-110880952D01*
X157142857Y-110880952D01*
X157047619Y-110833333D01*
X157000000Y-110785714D01*
X156952380Y-110690476D01*
X156952380Y-110452380D01*
X157000000Y-110309523D01*
X157428571Y-109547619D02*
X157476190Y-109404761D01*
X157523809Y-109357142D01*
X157619047Y-109309523D01*
X157761904Y-109309523D01*
X157857142Y-109357142D01*
X157904761Y-109404761D01*
X157952380Y-109500000D01*
X157952380Y-109880952D01*
X156952380Y-109880952D01*
X156952380Y-109547619D01*
X157000000Y-109452380D01*
X157047619Y-109404761D01*
X157142857Y-109357142D01*
X157238095Y-109357142D01*
X157333333Y-109404761D01*
X157380952Y-109452380D01*
X157428571Y-109547619D01*
X157428571Y-109880952D01*
X156952380Y-108261904D02*
X156952380Y-107690476D01*
X157952380Y-107976190D02*
X156952380Y-107976190D01*
X157285714Y-107452380D02*
X157952380Y-107214285D01*
X157285714Y-106976190D02*
X157952380Y-107214285D01*
X158190476Y-107309523D01*
X158238095Y-107357142D01*
X158285714Y-107452380D01*
X157285714Y-106595238D02*
X158285714Y-106595238D01*
X157333333Y-106595238D02*
X157285714Y-106500000D01*
X157285714Y-106309523D01*
X157333333Y-106214285D01*
X157380952Y-106166666D01*
X157476190Y-106119047D01*
X157761904Y-106119047D01*
X157857142Y-106166666D01*
X157904761Y-106214285D01*
X157952380Y-106309523D01*
X157952380Y-106500000D01*
X157904761Y-106595238D01*
X157904761Y-105309523D02*
X157952380Y-105404761D01*
X157952380Y-105595238D01*
X157904761Y-105690476D01*
X157809523Y-105738095D01*
X157428571Y-105738095D01*
X157333333Y-105690476D01*
X157285714Y-105595238D01*
X157285714Y-105404761D01*
X157333333Y-105309523D01*
X157428571Y-105261904D01*
X157523809Y-105261904D01*
X157619047Y-105738095D01*
X157571428Y-104833333D02*
X157571428Y-104071428D01*
X157857142Y-103023809D02*
X157904761Y-103071428D01*
X157952380Y-103214285D01*
X157952380Y-103309523D01*
X157904761Y-103452380D01*
X157809523Y-103547619D01*
X157714285Y-103595238D01*
X157523809Y-103642857D01*
X157380952Y-103642857D01*
X157190476Y-103595238D01*
X157095238Y-103547619D01*
X157000000Y-103452380D01*
X156952380Y-103309523D01*
X156952380Y-103214285D01*
X157000000Y-103071428D01*
X157047619Y-103023809D01*
X157952380Y-101309523D02*
X157952380Y-101880952D01*
X157952380Y-101595238D02*
X156952380Y-101595238D01*
X157095238Y-101690476D01*
X157190476Y-101785714D01*
X157238095Y-101880952D01*
X156952380Y-100452380D02*
X156952380Y-100642857D01*
X157000000Y-100738095D01*
X157047619Y-100785714D01*
X157190476Y-100880952D01*
X157380952Y-100928571D01*
X157761904Y-100928571D01*
X157857142Y-100880952D01*
X157904761Y-100833333D01*
X157952380Y-100738095D01*
X157952380Y-100547619D01*
X157904761Y-100452380D01*
X157857142Y-100404761D01*
X157761904Y-100357142D01*
X157523809Y-100357142D01*
X157428571Y-100404761D01*
X157380952Y-100452380D01*
X157333333Y-100547619D01*
X157333333Y-100738095D01*
X157380952Y-100833333D01*
X157428571Y-100880952D01*
X157523809Y-100928571D01*
X157285714Y-99928571D02*
X158285714Y-99928571D01*
X157333333Y-99928571D02*
X157285714Y-99833333D01*
X157285714Y-99642857D01*
X157333333Y-99547619D01*
X157380952Y-99500000D01*
X157476190Y-99452380D01*
X157761904Y-99452380D01*
X157857142Y-99500000D01*
X157904761Y-99547619D01*
X157952380Y-99642857D01*
X157952380Y-99833333D01*
X157904761Y-99928571D01*
X157952380Y-99023809D02*
X157285714Y-99023809D01*
X156952380Y-99023809D02*
X157000000Y-99071428D01*
X157047619Y-99023809D01*
X157000000Y-98976190D01*
X156952380Y-99023809D01*
X157047619Y-99023809D01*
X157285714Y-98547619D02*
X157952380Y-98547619D01*
X157380952Y-98547619D02*
X157333333Y-98500000D01*
X157285714Y-98404761D01*
X157285714Y-98261904D01*
X157333333Y-98166666D01*
X157428571Y-98119047D01*
X157952380Y-98119047D01*
X126952380Y-125666666D02*
X127761904Y-125666666D01*
X127857142Y-125619047D01*
X127904761Y-125571428D01*
X127952380Y-125476190D01*
X127952380Y-125285714D01*
X127904761Y-125190476D01*
X127857142Y-125142857D01*
X127761904Y-125095238D01*
X126952380Y-125095238D01*
X127904761Y-124666666D02*
X127952380Y-124523809D01*
X127952380Y-124285714D01*
X127904761Y-124190476D01*
X127857142Y-124142857D01*
X127761904Y-124095238D01*
X127666666Y-124095238D01*
X127571428Y-124142857D01*
X127523809Y-124190476D01*
X127476190Y-124285714D01*
X127428571Y-124476190D01*
X127380952Y-124571428D01*
X127333333Y-124619047D01*
X127238095Y-124666666D01*
X127142857Y-124666666D01*
X127047619Y-124619047D01*
X127000000Y-124571428D01*
X126952380Y-124476190D01*
X126952380Y-124238095D01*
X127000000Y-124095238D01*
X127428571Y-123333333D02*
X127476190Y-123190476D01*
X127523809Y-123142857D01*
X127619047Y-123095238D01*
X127761904Y-123095238D01*
X127857142Y-123142857D01*
X127904761Y-123190476D01*
X127952380Y-123285714D01*
X127952380Y-123666666D01*
X126952380Y-123666666D01*
X126952380Y-123333333D01*
X127000000Y-123238095D01*
X127047619Y-123190476D01*
X127142857Y-123142857D01*
X127238095Y-123142857D01*
X127333333Y-123190476D01*
X127380952Y-123238095D01*
X127428571Y-123333333D01*
X127428571Y-123666666D01*
X127285714Y-122238095D02*
X127952380Y-122238095D01*
X126904761Y-122476190D02*
X127619047Y-122714285D01*
X127619047Y-122095238D01*
X126952380Y-121523809D02*
X126952380Y-121428571D01*
X127000000Y-121333333D01*
X127047619Y-121285714D01*
X127142857Y-121238095D01*
X127333333Y-121190476D01*
X127571428Y-121190476D01*
X127761904Y-121238095D01*
X127857142Y-121285714D01*
X127904761Y-121333333D01*
X127952380Y-121428571D01*
X127952380Y-121523809D01*
X127904761Y-121619047D01*
X127857142Y-121666666D01*
X127761904Y-121714285D01*
X127571428Y-121761904D01*
X127333333Y-121761904D01*
X127142857Y-121714285D01*
X127047619Y-121666666D01*
X127000000Y-121619047D01*
X126952380Y-121523809D01*
X127380952Y-120619047D02*
X127333333Y-120714285D01*
X127285714Y-120761904D01*
X127190476Y-120809523D01*
X127142857Y-120809523D01*
X127047619Y-120761904D01*
X127000000Y-120714285D01*
X126952380Y-120619047D01*
X126952380Y-120428571D01*
X127000000Y-120333333D01*
X127047619Y-120285714D01*
X127142857Y-120238095D01*
X127190476Y-120238095D01*
X127285714Y-120285714D01*
X127333333Y-120333333D01*
X127380952Y-120428571D01*
X127380952Y-120619047D01*
X127428571Y-120714285D01*
X127476190Y-120761904D01*
X127571428Y-120809523D01*
X127761904Y-120809523D01*
X127857142Y-120761904D01*
X127904761Y-120714285D01*
X127952380Y-120619047D01*
X127952380Y-120428571D01*
X127904761Y-120333333D01*
X127857142Y-120285714D01*
X127761904Y-120238095D01*
X127571428Y-120238095D01*
X127476190Y-120285714D01*
X127428571Y-120333333D01*
X127380952Y-120428571D01*
X126952380Y-119333333D02*
X126952380Y-119809523D01*
X127428571Y-119857142D01*
X127380952Y-119809523D01*
X127333333Y-119714285D01*
X127333333Y-119476190D01*
X127380952Y-119380952D01*
X127428571Y-119333333D01*
X127523809Y-119285714D01*
X127761904Y-119285714D01*
X127857142Y-119333333D01*
X127904761Y-119380952D01*
X127952380Y-119476190D01*
X127952380Y-119714285D01*
X127904761Y-119809523D01*
X127857142Y-119857142D01*
X156952380Y-128904761D02*
X157761904Y-128904761D01*
X157857142Y-128857142D01*
X157904761Y-128809523D01*
X157952380Y-128714285D01*
X157952380Y-128523809D01*
X157904761Y-128428571D01*
X157857142Y-128380952D01*
X157761904Y-128333333D01*
X156952380Y-128333333D01*
X157904761Y-127904761D02*
X157952380Y-127761904D01*
X157952380Y-127523809D01*
X157904761Y-127428571D01*
X157857142Y-127380952D01*
X157761904Y-127333333D01*
X157666666Y-127333333D01*
X157571428Y-127380952D01*
X157523809Y-127428571D01*
X157476190Y-127523809D01*
X157428571Y-127714285D01*
X157380952Y-127809523D01*
X157333333Y-127857142D01*
X157238095Y-127904761D01*
X157142857Y-127904761D01*
X157047619Y-127857142D01*
X157000000Y-127809523D01*
X156952380Y-127714285D01*
X156952380Y-127476190D01*
X157000000Y-127333333D01*
X157428571Y-126571428D02*
X157476190Y-126428571D01*
X157523809Y-126380952D01*
X157619047Y-126333333D01*
X157761904Y-126333333D01*
X157857142Y-126380952D01*
X157904761Y-126428571D01*
X157952380Y-126523809D01*
X157952380Y-126904761D01*
X156952380Y-126904761D01*
X156952380Y-126571428D01*
X157000000Y-126476190D01*
X157047619Y-126428571D01*
X157142857Y-126380952D01*
X157238095Y-126380952D01*
X157333333Y-126428571D01*
X157380952Y-126476190D01*
X157428571Y-126571428D01*
X157428571Y-126904761D01*
X156952380Y-125285714D02*
X156952380Y-124714285D01*
X157952380Y-125000000D02*
X156952380Y-125000000D01*
X157285714Y-124476190D02*
X157952380Y-124238095D01*
X157285714Y-124000000D02*
X157952380Y-124238095D01*
X158190476Y-124333333D01*
X158238095Y-124380952D01*
X158285714Y-124476190D01*
X157285714Y-123619047D02*
X158285714Y-123619047D01*
X157333333Y-123619047D02*
X157285714Y-123523809D01*
X157285714Y-123333333D01*
X157333333Y-123238095D01*
X157380952Y-123190476D01*
X157476190Y-123142857D01*
X157761904Y-123142857D01*
X157857142Y-123190476D01*
X157904761Y-123238095D01*
X157952380Y-123333333D01*
X157952380Y-123523809D01*
X157904761Y-123619047D01*
X157904761Y-122333333D02*
X157952380Y-122428571D01*
X157952380Y-122619047D01*
X157904761Y-122714285D01*
X157809523Y-122761904D01*
X157428571Y-122761904D01*
X157333333Y-122714285D01*
X157285714Y-122619047D01*
X157285714Y-122428571D01*
X157333333Y-122333333D01*
X157428571Y-122285714D01*
X157523809Y-122285714D01*
X157619047Y-122761904D01*
X157571428Y-121857142D02*
X157571428Y-121095238D01*
X157857142Y-120047619D02*
X157904761Y-120095238D01*
X157952380Y-120238095D01*
X157952380Y-120333333D01*
X157904761Y-120476190D01*
X157809523Y-120571428D01*
X157714285Y-120619047D01*
X157523809Y-120666666D01*
X157380952Y-120666666D01*
X157190476Y-120619047D01*
X157095238Y-120571428D01*
X157000000Y-120476190D01*
X156952380Y-120333333D01*
X156952380Y-120238095D01*
X157000000Y-120095238D01*
X157047619Y-120047619D01*
X156952380Y-118428571D02*
X156952380Y-118619047D01*
X157000000Y-118714285D01*
X157047619Y-118761904D01*
X157190476Y-118857142D01*
X157380952Y-118904761D01*
X157761904Y-118904761D01*
X157857142Y-118857142D01*
X157904761Y-118809523D01*
X157952380Y-118714285D01*
X157952380Y-118523809D01*
X157904761Y-118428571D01*
X157857142Y-118380952D01*
X157761904Y-118333333D01*
X157523809Y-118333333D01*
X157428571Y-118380952D01*
X157380952Y-118428571D01*
X157333333Y-118523809D01*
X157333333Y-118714285D01*
X157380952Y-118809523D01*
X157428571Y-118857142D01*
X157523809Y-118904761D01*
X157285714Y-117904761D02*
X158285714Y-117904761D01*
X157333333Y-117904761D02*
X157285714Y-117809523D01*
X157285714Y-117619047D01*
X157333333Y-117523809D01*
X157380952Y-117476190D01*
X157476190Y-117428571D01*
X157761904Y-117428571D01*
X157857142Y-117476190D01*
X157904761Y-117523809D01*
X157952380Y-117619047D01*
X157952380Y-117809523D01*
X157904761Y-117904761D01*
X157952380Y-117000000D02*
X157285714Y-117000000D01*
X156952380Y-117000000D02*
X157000000Y-117047619D01*
X157047619Y-117000000D01*
X157000000Y-116952380D01*
X156952380Y-117000000D01*
X157047619Y-117000000D01*
X157285714Y-116523809D02*
X157952380Y-116523809D01*
X157380952Y-116523809D02*
X157333333Y-116476190D01*
X157285714Y-116380952D01*
X157285714Y-116238095D01*
X157333333Y-116142857D01*
X157428571Y-116095238D01*
X157952380Y-116095238D01*
D12*
X209850000Y-88850000D02*
X219250000Y-88850000D01*
X219250000Y-86950000D02*
X219250000Y-88850000D01*
X209850000Y-86950000D02*
X209850000Y-88850000D01*
D13*
X209230000Y-81060000D02*
X219550000Y-81060000D01*
X218870000Y-81120000D02*
X218870000Y-81010000D01*
D12*
X160850000Y-88850000D02*
X170250000Y-88850000D01*
X170250000Y-86950000D02*
X170250000Y-88850000D01*
X160850000Y-86950000D02*
X160850000Y-88850000D01*
D13*
X160230000Y-81060000D02*
X170550000Y-81060000D01*
X169870000Y-81120000D02*
X169870000Y-81010000D01*
D12*
X209850000Y-128850000D02*
X219250000Y-128850000D01*
X219250000Y-126950000D02*
X219250000Y-128850000D01*
X209850000Y-126950000D02*
X209850000Y-128850000D01*
D13*
X209230000Y-121060000D02*
X219550000Y-121060000D01*
X218870000Y-121120000D02*
X218870000Y-121010000D01*
D12*
X194630000Y-75070000D02*
X194630000Y-77730000D01*
X194630000Y-75070000D02*
X181870000Y-75070000D01*
X181870000Y-75070000D02*
X181870000Y-77730000D01*
X194630000Y-77730000D02*
X181870000Y-77730000D01*
X197230000Y-77730000D02*
X195900000Y-77730000D01*
X197230000Y-76400000D02*
X197230000Y-77730000D01*
X145630000Y-75070000D02*
X145630000Y-77730000D01*
X145630000Y-75070000D02*
X132870000Y-75070000D01*
X132870000Y-75070000D02*
X132870000Y-77730000D01*
X145630000Y-77730000D02*
X132870000Y-77730000D01*
X148230000Y-77730000D02*
X146900000Y-77730000D01*
X148230000Y-76400000D02*
X148230000Y-77730000D01*
X194630000Y-115070000D02*
X194630000Y-117730000D01*
X194630000Y-115070000D02*
X181870000Y-115070000D01*
X181870000Y-115070000D02*
X181870000Y-117730000D01*
X194630000Y-117730000D02*
X181870000Y-117730000D01*
X197230000Y-117730000D02*
X195900000Y-117730000D01*
X197230000Y-116400000D02*
X197230000Y-117730000D01*
X220330000Y-53770000D02*
X220330000Y-56430000D01*
X220330000Y-53770000D02*
X207570000Y-53770000D01*
X207570000Y-53770000D02*
X207570000Y-56430000D01*
X220330000Y-56430000D02*
X207570000Y-56430000D01*
X222930000Y-56430000D02*
X221600000Y-56430000D01*
X222930000Y-55100000D02*
X222930000Y-56430000D01*
X171330000Y-53770000D02*
X171330000Y-56430000D01*
X171330000Y-53770000D02*
X158570000Y-53770000D01*
X158570000Y-53770000D02*
X158570000Y-56430000D01*
X171330000Y-56430000D02*
X158570000Y-56430000D01*
X173930000Y-56430000D02*
X172600000Y-56430000D01*
X173930000Y-55100000D02*
X173930000Y-56430000D01*
X220330000Y-93770000D02*
X220330000Y-96430000D01*
X220330000Y-93770000D02*
X207570000Y-93770000D01*
X207570000Y-93770000D02*
X207570000Y-96430000D01*
X220330000Y-96430000D02*
X207570000Y-96430000D01*
X222930000Y-96430000D02*
X221600000Y-96430000D01*
X222930000Y-95100000D02*
X222930000Y-96430000D01*
X184580000Y-91230000D02*
X193770000Y-91230000D01*
X184700000Y-81820000D02*
X193650000Y-81820000D01*
X193770000Y-88500000D02*
X193770000Y-91230000D01*
X184580000Y-88500000D02*
X184580000Y-91230000D01*
X193770000Y-84900000D02*
X193770000Y-85800000D01*
X184580000Y-84900000D02*
X184580000Y-85800000D01*
X135580000Y-91230000D02*
X144770000Y-91230000D01*
X135700000Y-81820000D02*
X144650000Y-81820000D01*
X144770000Y-88500000D02*
X144770000Y-91230000D01*
X135580000Y-88500000D02*
X135580000Y-91230000D01*
X144770000Y-84900000D02*
X144770000Y-85800000D01*
X135580000Y-84900000D02*
X135580000Y-85800000D01*
X184580000Y-131230000D02*
X193770000Y-131230000D01*
X184700000Y-121820000D02*
X193650000Y-121820000D01*
X193770000Y-128500000D02*
X193770000Y-131230000D01*
X184580000Y-128500000D02*
X184580000Y-131230000D01*
X193770000Y-124900000D02*
X193770000Y-125800000D01*
X184580000Y-124900000D02*
X184580000Y-125800000D01*
X192750000Y-61230000D02*
X194250000Y-61230000D01*
X194250000Y-61230000D02*
X194250000Y-62750000D01*
X184750000Y-64250000D02*
X184750000Y-68490000D01*
X184750000Y-61230000D02*
X186250000Y-61230000D01*
X194250000Y-64250000D02*
X194250000Y-68490000D01*
X184750000Y-61230000D02*
X184750000Y-62750000D01*
X143750000Y-61230000D02*
X145250000Y-61230000D01*
X145250000Y-61230000D02*
X145250000Y-62750000D01*
X135750000Y-64250000D02*
X135750000Y-68490000D01*
X135750000Y-61230000D02*
X137250000Y-61230000D01*
X145250000Y-64250000D02*
X145250000Y-68490000D01*
X135750000Y-61230000D02*
X135750000Y-62750000D01*
X192750000Y-101230000D02*
X194250000Y-101230000D01*
X194250000Y-101230000D02*
X194250000Y-102750000D01*
X184750000Y-104250000D02*
X184750000Y-108490000D01*
X184750000Y-101230000D02*
X186250000Y-101230000D01*
X194250000Y-104250000D02*
X194250000Y-108490000D01*
X184750000Y-101230000D02*
X184750000Y-102750000D01*
X210330000Y-67710000D02*
X210330000Y-69610000D01*
X210330000Y-63810000D02*
X210330000Y-65810000D01*
X219730000Y-67710000D02*
X219730000Y-69610000D01*
X219730000Y-63810000D02*
X219730000Y-65810000D01*
X210330000Y-69610000D02*
X219730000Y-69610000D01*
X161330000Y-67710000D02*
X161330000Y-69610000D01*
X161330000Y-63810000D02*
X161330000Y-65810000D01*
X170730000Y-67710000D02*
X170730000Y-69610000D01*
X170730000Y-63810000D02*
X170730000Y-65810000D01*
X161330000Y-69610000D02*
X170730000Y-69610000D01*
X210330000Y-107710000D02*
X210330000Y-109610000D01*
X210330000Y-103810000D02*
X210330000Y-105810000D01*
X219730000Y-107710000D02*
X219730000Y-109610000D01*
X219730000Y-103810000D02*
X219730000Y-105810000D01*
X210330000Y-109610000D02*
X219730000Y-109610000D01*
X179770000Y-56330000D02*
X179770000Y-53670000D01*
X179770000Y-56330000D02*
X202690000Y-56330000D01*
X202690000Y-56330000D02*
X202690000Y-53670000D01*
X179770000Y-53670000D02*
X202690000Y-53670000D01*
X177170000Y-53670000D02*
X178500000Y-53670000D01*
X177170000Y-55000000D02*
X177170000Y-53670000D01*
X130770000Y-56330000D02*
X130770000Y-53670000D01*
X130770000Y-56330000D02*
X153690000Y-56330000D01*
X153690000Y-56330000D02*
X153690000Y-53670000D01*
X130770000Y-53670000D02*
X153690000Y-53670000D01*
X128170000Y-53670000D02*
X129500000Y-53670000D01*
X128170000Y-55000000D02*
X128170000Y-53670000D01*
X179770000Y-96330000D02*
X179770000Y-93670000D01*
X179770000Y-96330000D02*
X202690000Y-96330000D01*
X202690000Y-96330000D02*
X202690000Y-93670000D01*
X179770000Y-93670000D02*
X202690000Y-93670000D01*
X177170000Y-93670000D02*
X178500000Y-93670000D01*
X177170000Y-95000000D02*
X177170000Y-93670000D01*
X211970000Y-77330000D02*
X211970000Y-74670000D01*
X211970000Y-77330000D02*
X219650000Y-77330000D01*
X219650000Y-77330000D02*
X219650000Y-74670000D01*
X211970000Y-74670000D02*
X219650000Y-74670000D01*
X209370000Y-74670000D02*
X210700000Y-74670000D01*
X209370000Y-76000000D02*
X209370000Y-74670000D01*
X162970000Y-77330000D02*
X162970000Y-74670000D01*
X162970000Y-77330000D02*
X170650000Y-77330000D01*
X170650000Y-77330000D02*
X170650000Y-74670000D01*
X162970000Y-74670000D02*
X170650000Y-74670000D01*
X160370000Y-74670000D02*
X161700000Y-74670000D01*
X160370000Y-76000000D02*
X160370000Y-74670000D01*
X211970000Y-117330000D02*
X211970000Y-114670000D01*
X211970000Y-117330000D02*
X219650000Y-117330000D01*
X219650000Y-117330000D02*
X219650000Y-114670000D01*
X211970000Y-114670000D02*
X219650000Y-114670000D01*
X209370000Y-114670000D02*
X210700000Y-114670000D01*
X209370000Y-116000000D02*
X209370000Y-114670000D01*
X135580000Y-124900000D02*
X135580000Y-125800000D01*
X144770000Y-124900000D02*
X144770000Y-125800000D01*
X135580000Y-128500000D02*
X135580000Y-131230000D01*
X144770000Y-128500000D02*
X144770000Y-131230000D01*
X135700000Y-121820000D02*
X144650000Y-121820000D01*
X135580000Y-131230000D02*
X144770000Y-131230000D01*
X135750000Y-101230000D02*
X135750000Y-102750000D01*
X145250000Y-104250000D02*
X145250000Y-108490000D01*
X135750000Y-101230000D02*
X137250000Y-101230000D01*
X135750000Y-104250000D02*
X135750000Y-108490000D01*
X145250000Y-101230000D02*
X145250000Y-102750000D01*
X143750000Y-101230000D02*
X145250000Y-101230000D01*
X161330000Y-109610000D02*
X170730000Y-109610000D01*
X170730000Y-103810000D02*
X170730000Y-105810000D01*
X170730000Y-107710000D02*
X170730000Y-109610000D01*
X161330000Y-103810000D02*
X161330000Y-105810000D01*
X161330000Y-107710000D02*
X161330000Y-109610000D01*
D13*
X169870000Y-121120000D02*
X169870000Y-121010000D01*
X160230000Y-121060000D02*
X170550000Y-121060000D01*
D12*
X160850000Y-126950000D02*
X160850000Y-128850000D01*
X170250000Y-126950000D02*
X170250000Y-128850000D01*
X160850000Y-128850000D02*
X170250000Y-128850000D01*
X128170000Y-95000000D02*
X128170000Y-93670000D01*
X128170000Y-93670000D02*
X129500000Y-93670000D01*
X130770000Y-93670000D02*
X153690000Y-93670000D01*
X153690000Y-96330000D02*
X153690000Y-93670000D01*
X130770000Y-96330000D02*
X153690000Y-96330000D01*
X130770000Y-96330000D02*
X130770000Y-93670000D01*
X160370000Y-116000000D02*
X160370000Y-114670000D01*
X160370000Y-114670000D02*
X161700000Y-114670000D01*
X162970000Y-114670000D02*
X170650000Y-114670000D01*
X170650000Y-117330000D02*
X170650000Y-114670000D01*
X162970000Y-117330000D02*
X170650000Y-117330000D01*
X162970000Y-117330000D02*
X162970000Y-114670000D01*
X148230000Y-116400000D02*
X148230000Y-117730000D01*
X148230000Y-117730000D02*
X146900000Y-117730000D01*
X145630000Y-117730000D02*
X132870000Y-117730000D01*
X132870000Y-115070000D02*
X132870000Y-117730000D01*
X145630000Y-115070000D02*
X132870000Y-115070000D01*
X145630000Y-115070000D02*
X145630000Y-117730000D01*
X173930000Y-95100000D02*
X173930000Y-96430000D01*
X173930000Y-96430000D02*
X172600000Y-96430000D01*
X171330000Y-96430000D02*
X158570000Y-96430000D01*
X158570000Y-93770000D02*
X158570000Y-96430000D01*
X171330000Y-93770000D02*
X158570000Y-93770000D01*
X171330000Y-93770000D02*
X171330000Y-96430000D01*
D11*
X214216666Y-78757380D02*
X214216666Y-79471666D01*
X214169047Y-79614523D01*
X214073809Y-79709761D01*
X213930952Y-79757380D01*
X213835714Y-79757380D01*
X215121428Y-79090714D02*
X215121428Y-79757380D01*
X214883333Y-78709761D02*
X214645238Y-79424047D01*
X215264285Y-79424047D01*
X165216666Y-78757380D02*
X165216666Y-79471666D01*
X165169047Y-79614523D01*
X165073809Y-79709761D01*
X164930952Y-79757380D01*
X164835714Y-79757380D01*
X166121428Y-79090714D02*
X166121428Y-79757380D01*
X165883333Y-78709761D02*
X165645238Y-79424047D01*
X166264285Y-79424047D01*
X214216666Y-118757380D02*
X214216666Y-119471666D01*
X214169047Y-119614523D01*
X214073809Y-119709761D01*
X213930952Y-119757380D01*
X213835714Y-119757380D01*
X215121428Y-119090714D02*
X215121428Y-119757380D01*
X214883333Y-118709761D02*
X214645238Y-119424047D01*
X215264285Y-119424047D01*
X198122380Y-76733333D02*
X198836666Y-76733333D01*
X198979523Y-76780952D01*
X199074761Y-76876190D01*
X199122380Y-77019047D01*
X199122380Y-77114285D01*
X198122380Y-75828571D02*
X198122380Y-76019047D01*
X198170000Y-76114285D01*
X198217619Y-76161904D01*
X198360476Y-76257142D01*
X198550952Y-76304761D01*
X198931904Y-76304761D01*
X199027142Y-76257142D01*
X199074761Y-76209523D01*
X199122380Y-76114285D01*
X199122380Y-75923809D01*
X199074761Y-75828571D01*
X199027142Y-75780952D01*
X198931904Y-75733333D01*
X198693809Y-75733333D01*
X198598571Y-75780952D01*
X198550952Y-75828571D01*
X198503333Y-75923809D01*
X198503333Y-76114285D01*
X198550952Y-76209523D01*
X198598571Y-76257142D01*
X198693809Y-76304761D01*
X149122380Y-76733333D02*
X149836666Y-76733333D01*
X149979523Y-76780952D01*
X150074761Y-76876190D01*
X150122380Y-77019047D01*
X150122380Y-77114285D01*
X149122380Y-75828571D02*
X149122380Y-76019047D01*
X149170000Y-76114285D01*
X149217619Y-76161904D01*
X149360476Y-76257142D01*
X149550952Y-76304761D01*
X149931904Y-76304761D01*
X150027142Y-76257142D01*
X150074761Y-76209523D01*
X150122380Y-76114285D01*
X150122380Y-75923809D01*
X150074761Y-75828571D01*
X150027142Y-75780952D01*
X149931904Y-75733333D01*
X149693809Y-75733333D01*
X149598571Y-75780952D01*
X149550952Y-75828571D01*
X149503333Y-75923809D01*
X149503333Y-76114285D01*
X149550952Y-76209523D01*
X149598571Y-76257142D01*
X149693809Y-76304761D01*
X198122380Y-116733333D02*
X198836666Y-116733333D01*
X198979523Y-116780952D01*
X199074761Y-116876190D01*
X199122380Y-117019047D01*
X199122380Y-117114285D01*
X198122380Y-115828571D02*
X198122380Y-116019047D01*
X198170000Y-116114285D01*
X198217619Y-116161904D01*
X198360476Y-116257142D01*
X198550952Y-116304761D01*
X198931904Y-116304761D01*
X199027142Y-116257142D01*
X199074761Y-116209523D01*
X199122380Y-116114285D01*
X199122380Y-115923809D01*
X199074761Y-115828571D01*
X199027142Y-115780952D01*
X198931904Y-115733333D01*
X198693809Y-115733333D01*
X198598571Y-115780952D01*
X198550952Y-115828571D01*
X198503333Y-115923809D01*
X198503333Y-116114285D01*
X198550952Y-116209523D01*
X198598571Y-116257142D01*
X198693809Y-116304761D01*
X205952380Y-55433333D02*
X206666666Y-55433333D01*
X206809523Y-55480952D01*
X206904761Y-55576190D01*
X206952380Y-55719047D01*
X206952380Y-55814285D01*
X206380952Y-54814285D02*
X206333333Y-54909523D01*
X206285714Y-54957142D01*
X206190476Y-55004761D01*
X206142857Y-55004761D01*
X206047619Y-54957142D01*
X206000000Y-54909523D01*
X205952380Y-54814285D01*
X205952380Y-54623809D01*
X206000000Y-54528571D01*
X206047619Y-54480952D01*
X206142857Y-54433333D01*
X206190476Y-54433333D01*
X206285714Y-54480952D01*
X206333333Y-54528571D01*
X206380952Y-54623809D01*
X206380952Y-54814285D01*
X206428571Y-54909523D01*
X206476190Y-54957142D01*
X206571428Y-55004761D01*
X206761904Y-55004761D01*
X206857142Y-54957142D01*
X206904761Y-54909523D01*
X206952380Y-54814285D01*
X206952380Y-54623809D01*
X206904761Y-54528571D01*
X206857142Y-54480952D01*
X206761904Y-54433333D01*
X206571428Y-54433333D01*
X206476190Y-54480952D01*
X206428571Y-54528571D01*
X206380952Y-54623809D01*
X156952380Y-55433333D02*
X157666666Y-55433333D01*
X157809523Y-55480952D01*
X157904761Y-55576190D01*
X157952380Y-55719047D01*
X157952380Y-55814285D01*
X157380952Y-54814285D02*
X157333333Y-54909523D01*
X157285714Y-54957142D01*
X157190476Y-55004761D01*
X157142857Y-55004761D01*
X157047619Y-54957142D01*
X157000000Y-54909523D01*
X156952380Y-54814285D01*
X156952380Y-54623809D01*
X157000000Y-54528571D01*
X157047619Y-54480952D01*
X157142857Y-54433333D01*
X157190476Y-54433333D01*
X157285714Y-54480952D01*
X157333333Y-54528571D01*
X157380952Y-54623809D01*
X157380952Y-54814285D01*
X157428571Y-54909523D01*
X157476190Y-54957142D01*
X157571428Y-55004761D01*
X157761904Y-55004761D01*
X157857142Y-54957142D01*
X157904761Y-54909523D01*
X157952380Y-54814285D01*
X157952380Y-54623809D01*
X157904761Y-54528571D01*
X157857142Y-54480952D01*
X157761904Y-54433333D01*
X157571428Y-54433333D01*
X157476190Y-54480952D01*
X157428571Y-54528571D01*
X157380952Y-54623809D01*
X205952380Y-95433333D02*
X206666666Y-95433333D01*
X206809523Y-95480952D01*
X206904761Y-95576190D01*
X206952380Y-95719047D01*
X206952380Y-95814285D01*
X206380952Y-94814285D02*
X206333333Y-94909523D01*
X206285714Y-94957142D01*
X206190476Y-95004761D01*
X206142857Y-95004761D01*
X206047619Y-94957142D01*
X206000000Y-94909523D01*
X205952380Y-94814285D01*
X205952380Y-94623809D01*
X206000000Y-94528571D01*
X206047619Y-94480952D01*
X206142857Y-94433333D01*
X206190476Y-94433333D01*
X206285714Y-94480952D01*
X206333333Y-94528571D01*
X206380952Y-94623809D01*
X206380952Y-94814285D01*
X206428571Y-94909523D01*
X206476190Y-94957142D01*
X206571428Y-95004761D01*
X206761904Y-95004761D01*
X206857142Y-94957142D01*
X206904761Y-94909523D01*
X206952380Y-94814285D01*
X206952380Y-94623809D01*
X206904761Y-94528571D01*
X206857142Y-94480952D01*
X206761904Y-94433333D01*
X206571428Y-94433333D01*
X206476190Y-94480952D01*
X206428571Y-94528571D01*
X206380952Y-94623809D01*
X188841666Y-80152380D02*
X188841666Y-80866666D01*
X188794047Y-81009523D01*
X188698809Y-81104761D01*
X188555952Y-81152380D01*
X188460714Y-81152380D01*
X189841666Y-81152380D02*
X189270238Y-81152380D01*
X189555952Y-81152380D02*
X189555952Y-80152380D01*
X189460714Y-80295238D01*
X189365476Y-80390476D01*
X189270238Y-80438095D01*
X139841666Y-80152380D02*
X139841666Y-80866666D01*
X139794047Y-81009523D01*
X139698809Y-81104761D01*
X139555952Y-81152380D01*
X139460714Y-81152380D01*
X140841666Y-81152380D02*
X140270238Y-81152380D01*
X140555952Y-81152380D02*
X140555952Y-80152380D01*
X140460714Y-80295238D01*
X140365476Y-80390476D01*
X140270238Y-80438095D01*
X188841666Y-120152380D02*
X188841666Y-120866666D01*
X188794047Y-121009523D01*
X188698809Y-121104761D01*
X188555952Y-121152380D01*
X188460714Y-121152380D01*
X189841666Y-121152380D02*
X189270238Y-121152380D01*
X189555952Y-121152380D02*
X189555952Y-120152380D01*
X189460714Y-120295238D01*
X189365476Y-120390476D01*
X189270238Y-120438095D01*
X189166666Y-59692380D02*
X189166666Y-60406666D01*
X189119047Y-60549523D01*
X189023809Y-60644761D01*
X188880952Y-60692380D01*
X188785714Y-60692380D01*
X189595238Y-59787619D02*
X189642857Y-59740000D01*
X189738095Y-59692380D01*
X189976190Y-59692380D01*
X190071428Y-59740000D01*
X190119047Y-59787619D01*
X190166666Y-59882857D01*
X190166666Y-59978095D01*
X190119047Y-60120952D01*
X189547619Y-60692380D01*
X190166666Y-60692380D01*
X140166666Y-59692380D02*
X140166666Y-60406666D01*
X140119047Y-60549523D01*
X140023809Y-60644761D01*
X139880952Y-60692380D01*
X139785714Y-60692380D01*
X140595238Y-59787619D02*
X140642857Y-59740000D01*
X140738095Y-59692380D01*
X140976190Y-59692380D01*
X141071428Y-59740000D01*
X141119047Y-59787619D01*
X141166666Y-59882857D01*
X141166666Y-59978095D01*
X141119047Y-60120952D01*
X140547619Y-60692380D01*
X141166666Y-60692380D01*
X189166666Y-99692380D02*
X189166666Y-100406666D01*
X189119047Y-100549523D01*
X189023809Y-100644761D01*
X188880952Y-100692380D01*
X188785714Y-100692380D01*
X189595238Y-99787619D02*
X189642857Y-99740000D01*
X189738095Y-99692380D01*
X189976190Y-99692380D01*
X190071428Y-99740000D01*
X190119047Y-99787619D01*
X190166666Y-99882857D01*
X190166666Y-99978095D01*
X190119047Y-100120952D01*
X189547619Y-100692380D01*
X190166666Y-100692380D01*
X214696666Y-59517380D02*
X214696666Y-60231666D01*
X214649047Y-60374523D01*
X214553809Y-60469761D01*
X214410952Y-60517380D01*
X214315714Y-60517380D01*
X215077619Y-59517380D02*
X215696666Y-59517380D01*
X215363333Y-59898333D01*
X215506190Y-59898333D01*
X215601428Y-59945952D01*
X215649047Y-59993571D01*
X215696666Y-60088809D01*
X215696666Y-60326904D01*
X215649047Y-60422142D01*
X215601428Y-60469761D01*
X215506190Y-60517380D01*
X215220476Y-60517380D01*
X215125238Y-60469761D01*
X215077619Y-60422142D01*
X165696666Y-59517380D02*
X165696666Y-60231666D01*
X165649047Y-60374523D01*
X165553809Y-60469761D01*
X165410952Y-60517380D01*
X165315714Y-60517380D01*
X166077619Y-59517380D02*
X166696666Y-59517380D01*
X166363333Y-59898333D01*
X166506190Y-59898333D01*
X166601428Y-59945952D01*
X166649047Y-59993571D01*
X166696666Y-60088809D01*
X166696666Y-60326904D01*
X166649047Y-60422142D01*
X166601428Y-60469761D01*
X166506190Y-60517380D01*
X166220476Y-60517380D01*
X166125238Y-60469761D01*
X166077619Y-60422142D01*
X214696666Y-99517380D02*
X214696666Y-100231666D01*
X214649047Y-100374523D01*
X214553809Y-100469761D01*
X214410952Y-100517380D01*
X214315714Y-100517380D01*
X215077619Y-99517380D02*
X215696666Y-99517380D01*
X215363333Y-99898333D01*
X215506190Y-99898333D01*
X215601428Y-99945952D01*
X215649047Y-99993571D01*
X215696666Y-100088809D01*
X215696666Y-100326904D01*
X215649047Y-100422142D01*
X215601428Y-100469761D01*
X215506190Y-100517380D01*
X215220476Y-100517380D01*
X215125238Y-100469761D01*
X215077619Y-100422142D01*
X175182380Y-55333333D02*
X175896666Y-55333333D01*
X176039523Y-55380952D01*
X176134761Y-55476190D01*
X176182380Y-55619047D01*
X176182380Y-55714285D01*
X175182380Y-54952380D02*
X175182380Y-54285714D01*
X176182380Y-54714285D01*
X126182380Y-55333333D02*
X126896666Y-55333333D01*
X127039523Y-55380952D01*
X127134761Y-55476190D01*
X127182380Y-55619047D01*
X127182380Y-55714285D01*
X126182380Y-54952380D02*
X126182380Y-54285714D01*
X127182380Y-54714285D01*
X175182380Y-95333333D02*
X175896666Y-95333333D01*
X176039523Y-95380952D01*
X176134761Y-95476190D01*
X176182380Y-95619047D01*
X176182380Y-95714285D01*
X175182380Y-94952380D02*
X175182380Y-94285714D01*
X176182380Y-94714285D01*
X207382380Y-76333333D02*
X208096666Y-76333333D01*
X208239523Y-76380952D01*
X208334761Y-76476190D01*
X208382380Y-76619047D01*
X208382380Y-76714285D01*
X207382380Y-75380952D02*
X207382380Y-75857142D01*
X207858571Y-75904761D01*
X207810952Y-75857142D01*
X207763333Y-75761904D01*
X207763333Y-75523809D01*
X207810952Y-75428571D01*
X207858571Y-75380952D01*
X207953809Y-75333333D01*
X208191904Y-75333333D01*
X208287142Y-75380952D01*
X208334761Y-75428571D01*
X208382380Y-75523809D01*
X208382380Y-75761904D01*
X208334761Y-75857142D01*
X208287142Y-75904761D01*
X158382380Y-76333333D02*
X159096666Y-76333333D01*
X159239523Y-76380952D01*
X159334761Y-76476190D01*
X159382380Y-76619047D01*
X159382380Y-76714285D01*
X158382380Y-75380952D02*
X158382380Y-75857142D01*
X158858571Y-75904761D01*
X158810952Y-75857142D01*
X158763333Y-75761904D01*
X158763333Y-75523809D01*
X158810952Y-75428571D01*
X158858571Y-75380952D01*
X158953809Y-75333333D01*
X159191904Y-75333333D01*
X159287142Y-75380952D01*
X159334761Y-75428571D01*
X159382380Y-75523809D01*
X159382380Y-75761904D01*
X159334761Y-75857142D01*
X159287142Y-75904761D01*
X207382380Y-116333333D02*
X208096666Y-116333333D01*
X208239523Y-116380952D01*
X208334761Y-116476190D01*
X208382380Y-116619047D01*
X208382380Y-116714285D01*
X207382380Y-115380952D02*
X207382380Y-115857142D01*
X207858571Y-115904761D01*
X207810952Y-115857142D01*
X207763333Y-115761904D01*
X207763333Y-115523809D01*
X207810952Y-115428571D01*
X207858571Y-115380952D01*
X207953809Y-115333333D01*
X208191904Y-115333333D01*
X208287142Y-115380952D01*
X208334761Y-115428571D01*
X208382380Y-115523809D01*
X208382380Y-115761904D01*
X208334761Y-115857142D01*
X208287142Y-115904761D01*
X139841666Y-120152380D02*
X139841666Y-120866666D01*
X139794047Y-121009523D01*
X139698809Y-121104761D01*
X139555952Y-121152380D01*
X139460714Y-121152380D01*
X140841666Y-121152380D02*
X140270238Y-121152380D01*
X140555952Y-121152380D02*
X140555952Y-120152380D01*
X140460714Y-120295238D01*
X140365476Y-120390476D01*
X140270238Y-120438095D01*
X140166666Y-99692380D02*
X140166666Y-100406666D01*
X140119047Y-100549523D01*
X140023809Y-100644761D01*
X139880952Y-100692380D01*
X139785714Y-100692380D01*
X140595238Y-99787619D02*
X140642857Y-99740000D01*
X140738095Y-99692380D01*
X140976190Y-99692380D01*
X141071428Y-99740000D01*
X141119047Y-99787619D01*
X141166666Y-99882857D01*
X141166666Y-99978095D01*
X141119047Y-100120952D01*
X140547619Y-100692380D01*
X141166666Y-100692380D01*
X165696666Y-99517380D02*
X165696666Y-100231666D01*
X165649047Y-100374523D01*
X165553809Y-100469761D01*
X165410952Y-100517380D01*
X165315714Y-100517380D01*
X166077619Y-99517380D02*
X166696666Y-99517380D01*
X166363333Y-99898333D01*
X166506190Y-99898333D01*
X166601428Y-99945952D01*
X166649047Y-99993571D01*
X166696666Y-100088809D01*
X166696666Y-100326904D01*
X166649047Y-100422142D01*
X166601428Y-100469761D01*
X166506190Y-100517380D01*
X166220476Y-100517380D01*
X166125238Y-100469761D01*
X166077619Y-100422142D01*
X165216666Y-118757380D02*
X165216666Y-119471666D01*
X165169047Y-119614523D01*
X165073809Y-119709761D01*
X164930952Y-119757380D01*
X164835714Y-119757380D01*
X166121428Y-119090714D02*
X166121428Y-119757380D01*
X165883333Y-118709761D02*
X165645238Y-119424047D01*
X166264285Y-119424047D01*
X126182380Y-95333333D02*
X126896666Y-95333333D01*
X127039523Y-95380952D01*
X127134761Y-95476190D01*
X127182380Y-95619047D01*
X127182380Y-95714285D01*
X126182380Y-94952380D02*
X126182380Y-94285714D01*
X127182380Y-94714285D01*
X158382380Y-116333333D02*
X159096666Y-116333333D01*
X159239523Y-116380952D01*
X159334761Y-116476190D01*
X159382380Y-116619047D01*
X159382380Y-116714285D01*
X158382380Y-115380952D02*
X158382380Y-115857142D01*
X158858571Y-115904761D01*
X158810952Y-115857142D01*
X158763333Y-115761904D01*
X158763333Y-115523809D01*
X158810952Y-115428571D01*
X158858571Y-115380952D01*
X158953809Y-115333333D01*
X159191904Y-115333333D01*
X159287142Y-115380952D01*
X159334761Y-115428571D01*
X159382380Y-115523809D01*
X159382380Y-115761904D01*
X159334761Y-115857142D01*
X159287142Y-115904761D01*
X149122380Y-116733333D02*
X149836666Y-116733333D01*
X149979523Y-116780952D01*
X150074761Y-116876190D01*
X150122380Y-117019047D01*
X150122380Y-117114285D01*
X149122380Y-115828571D02*
X149122380Y-116019047D01*
X149170000Y-116114285D01*
X149217619Y-116161904D01*
X149360476Y-116257142D01*
X149550952Y-116304761D01*
X149931904Y-116304761D01*
X150027142Y-116257142D01*
X150074761Y-116209523D01*
X150122380Y-116114285D01*
X150122380Y-115923809D01*
X150074761Y-115828571D01*
X150027142Y-115780952D01*
X149931904Y-115733333D01*
X149693809Y-115733333D01*
X149598571Y-115780952D01*
X149550952Y-115828571D01*
X149503333Y-115923809D01*
X149503333Y-116114285D01*
X149550952Y-116209523D01*
X149598571Y-116257142D01*
X149693809Y-116304761D01*
X156952380Y-95433333D02*
X157666666Y-95433333D01*
X157809523Y-95480952D01*
X157904761Y-95576190D01*
X157952380Y-95719047D01*
X157952380Y-95814285D01*
X157380952Y-94814285D02*
X157333333Y-94909523D01*
X157285714Y-94957142D01*
X157190476Y-95004761D01*
X157142857Y-95004761D01*
X157047619Y-94957142D01*
X157000000Y-94909523D01*
X156952380Y-94814285D01*
X156952380Y-94623809D01*
X157000000Y-94528571D01*
X157047619Y-94480952D01*
X157142857Y-94433333D01*
X157190476Y-94433333D01*
X157285714Y-94480952D01*
X157333333Y-94528571D01*
X157380952Y-94623809D01*
X157380952Y-94814285D01*
X157428571Y-94909523D01*
X157476190Y-94957142D01*
X157571428Y-95004761D01*
X157761904Y-95004761D01*
X157857142Y-94957142D01*
X157904761Y-94909523D01*
X157952380Y-94814285D01*
X157952380Y-94623809D01*
X157904761Y-94528571D01*
X157857142Y-94480952D01*
X157761904Y-94433333D01*
X157571428Y-94433333D01*
X157476190Y-94480952D01*
X157428571Y-94528571D01*
X157380952Y-94623809D01*
%LPC*%
D14*
X216070000Y-80910000D03*
X213030000Y-80910000D03*
D15*
X211800000Y-80910000D03*
X217310000Y-80910000D03*
D16*
X214050000Y-80910000D03*
X215050000Y-80910000D03*
D17*
X218870000Y-81060000D03*
X210230000Y-81060000D03*
X210230000Y-84860000D03*
X218870000Y-84860000D03*
D14*
X167070000Y-80910000D03*
X164030000Y-80910000D03*
D15*
X162800000Y-80910000D03*
X168310000Y-80910000D03*
D16*
X165050000Y-80910000D03*
X166050000Y-80910000D03*
D17*
X169870000Y-81060000D03*
X161230000Y-81060000D03*
X161230000Y-84860000D03*
X169870000Y-84860000D03*
D14*
X216070000Y-120910000D03*
X213030000Y-120910000D03*
D15*
X211800000Y-120910000D03*
X217310000Y-120910000D03*
D16*
X214050000Y-120910000D03*
X215050000Y-120910000D03*
D17*
X218870000Y-121060000D03*
X210230000Y-121060000D03*
X210230000Y-124860000D03*
X218870000Y-124860000D03*
D18*
X195900000Y-76400000D03*
D19*
X193360000Y-76400000D03*
X190820000Y-76400000D03*
X188280000Y-76400000D03*
X185740000Y-76400000D03*
X183200000Y-76400000D03*
D18*
X146900000Y-76400000D03*
D19*
X144360000Y-76400000D03*
X141820000Y-76400000D03*
X139280000Y-76400000D03*
X136740000Y-76400000D03*
X134200000Y-76400000D03*
D18*
X195900000Y-116400000D03*
D19*
X193360000Y-116400000D03*
X190820000Y-116400000D03*
X188280000Y-116400000D03*
X185740000Y-116400000D03*
X183200000Y-116400000D03*
D18*
X221600000Y-55100000D03*
D19*
X219060000Y-55100000D03*
X216520000Y-55100000D03*
X213980000Y-55100000D03*
X211440000Y-55100000D03*
X208900000Y-55100000D03*
D18*
X172600000Y-55100000D03*
D19*
X170060000Y-55100000D03*
X167520000Y-55100000D03*
X164980000Y-55100000D03*
X162440000Y-55100000D03*
X159900000Y-55100000D03*
D18*
X221600000Y-95100000D03*
D19*
X219060000Y-95100000D03*
X216520000Y-95100000D03*
X213980000Y-95100000D03*
X211440000Y-95100000D03*
X208900000Y-95100000D03*
D20*
X186200000Y-82500000D03*
X187050000Y-82500000D03*
X187900000Y-82500000D03*
X188750000Y-82500000D03*
X189600000Y-82500000D03*
X190450000Y-82500000D03*
X191300000Y-82500000D03*
X192150000Y-82500000D03*
X187050000Y-83850000D03*
X188750000Y-83850000D03*
X187900000Y-83850000D03*
X186200000Y-83850000D03*
X190450000Y-83850000D03*
X191300000Y-83850000D03*
X192150000Y-83850000D03*
X189600000Y-83850000D03*
D21*
X184850000Y-83480000D03*
X193500000Y-83480000D03*
D22*
X184850000Y-86860000D03*
X193500000Y-86860000D03*
D20*
X137200000Y-82500000D03*
X138050000Y-82500000D03*
X138900000Y-82500000D03*
X139750000Y-82500000D03*
X140600000Y-82500000D03*
X141450000Y-82500000D03*
X142300000Y-82500000D03*
X143150000Y-82500000D03*
X138050000Y-83850000D03*
X139750000Y-83850000D03*
X138900000Y-83850000D03*
X137200000Y-83850000D03*
X141450000Y-83850000D03*
X142300000Y-83850000D03*
X143150000Y-83850000D03*
X140600000Y-83850000D03*
D21*
X135850000Y-83480000D03*
X144500000Y-83480000D03*
D22*
X135850000Y-86860000D03*
X144500000Y-86860000D03*
D20*
X186200000Y-122500000D03*
X187050000Y-122500000D03*
X187900000Y-122500000D03*
X188750000Y-122500000D03*
X189600000Y-122500000D03*
X190450000Y-122500000D03*
X191300000Y-122500000D03*
X192150000Y-122500000D03*
X187050000Y-123850000D03*
X188750000Y-123850000D03*
X187900000Y-123850000D03*
X186200000Y-123850000D03*
X190450000Y-123850000D03*
X191300000Y-123850000D03*
X192150000Y-123850000D03*
X189600000Y-123850000D03*
D21*
X184850000Y-123480000D03*
X193500000Y-123480000D03*
D22*
X184850000Y-126860000D03*
X193500000Y-126860000D03*
D23*
X185370000Y-63490000D03*
D24*
X186750000Y-61580000D03*
X187250000Y-61580000D03*
X187750000Y-61580000D03*
X188250000Y-61580000D03*
X188750000Y-61580000D03*
X189250000Y-61580000D03*
X189750000Y-61580000D03*
X192250000Y-61580000D03*
X191250000Y-61580000D03*
X190750000Y-61580000D03*
X190250000Y-61580000D03*
X191750000Y-61580000D03*
D23*
X193630000Y-63490000D03*
X193990000Y-69440000D03*
X185010000Y-69440000D03*
D25*
X193100000Y-62240000D03*
D26*
X185900000Y-62240000D03*
X192300000Y-62890000D03*
X190700000Y-62890000D03*
X189900000Y-62890000D03*
X189100000Y-62890000D03*
X188300000Y-62890000D03*
X186700000Y-62890000D03*
X191900000Y-63590000D03*
X191100000Y-63590000D03*
X190300000Y-63590000D03*
X188700000Y-63590000D03*
X187900000Y-63590000D03*
X187100000Y-63590000D03*
D23*
X136370000Y-63490000D03*
D24*
X137750000Y-61580000D03*
X138250000Y-61580000D03*
X138750000Y-61580000D03*
X139250000Y-61580000D03*
X139750000Y-61580000D03*
X140250000Y-61580000D03*
X140750000Y-61580000D03*
X143250000Y-61580000D03*
X142250000Y-61580000D03*
X141750000Y-61580000D03*
X141250000Y-61580000D03*
X142750000Y-61580000D03*
D23*
X144630000Y-63490000D03*
X144990000Y-69440000D03*
X136010000Y-69440000D03*
D25*
X144100000Y-62240000D03*
D26*
X136900000Y-62240000D03*
X143300000Y-62890000D03*
X141700000Y-62890000D03*
X140900000Y-62890000D03*
X140100000Y-62890000D03*
X139300000Y-62890000D03*
X137700000Y-62890000D03*
X142900000Y-63590000D03*
X142100000Y-63590000D03*
X141300000Y-63590000D03*
X139700000Y-63590000D03*
X138900000Y-63590000D03*
X138100000Y-63590000D03*
D23*
X185370000Y-103490000D03*
D24*
X186750000Y-101580000D03*
X187250000Y-101580000D03*
X187750000Y-101580000D03*
X188250000Y-101580000D03*
X188750000Y-101580000D03*
X189250000Y-101580000D03*
X189750000Y-101580000D03*
X192250000Y-101580000D03*
X191250000Y-101580000D03*
X190750000Y-101580000D03*
X190250000Y-101580000D03*
X191750000Y-101580000D03*
D23*
X193630000Y-103490000D03*
X193990000Y-109440000D03*
X185010000Y-109440000D03*
D25*
X193100000Y-102240000D03*
D26*
X185900000Y-102240000D03*
X192300000Y-102890000D03*
X190700000Y-102890000D03*
X189900000Y-102890000D03*
X189100000Y-102890000D03*
X188300000Y-102890000D03*
X186700000Y-102890000D03*
X191900000Y-103590000D03*
X191100000Y-103590000D03*
X190300000Y-103590000D03*
X188700000Y-103590000D03*
X187900000Y-103590000D03*
X187100000Y-103590000D03*
D27*
X219350000Y-66760000D03*
D26*
X217920000Y-63110000D03*
D27*
X210710000Y-66760000D03*
D26*
X212140000Y-63110000D03*
D28*
X210710000Y-62580000D03*
X219350000Y-62580000D03*
D29*
X214780000Y-61665000D03*
X216780000Y-61665000D03*
X216280000Y-61665000D03*
X215780000Y-61665000D03*
X215280000Y-61665000D03*
X214280000Y-61665000D03*
X213780000Y-61665000D03*
X213280000Y-61665000D03*
D30*
X218280000Y-61665000D03*
X217480000Y-61665000D03*
X212580000Y-61665000D03*
X211780000Y-61665000D03*
X211780000Y-61665000D03*
X212580000Y-61665000D03*
X217480000Y-61665000D03*
X218280000Y-61665000D03*
D27*
X170350000Y-66760000D03*
D26*
X168920000Y-63110000D03*
D27*
X161710000Y-66760000D03*
D26*
X163140000Y-63110000D03*
D28*
X161710000Y-62580000D03*
X170350000Y-62580000D03*
D29*
X165780000Y-61665000D03*
X167780000Y-61665000D03*
X167280000Y-61665000D03*
X166780000Y-61665000D03*
X166280000Y-61665000D03*
X165280000Y-61665000D03*
X164780000Y-61665000D03*
X164280000Y-61665000D03*
D30*
X169280000Y-61665000D03*
X168480000Y-61665000D03*
X163580000Y-61665000D03*
X162780000Y-61665000D03*
X162780000Y-61665000D03*
X163580000Y-61665000D03*
X168480000Y-61665000D03*
X169280000Y-61665000D03*
D27*
X219350000Y-106760000D03*
D26*
X217920000Y-103110000D03*
D27*
X210710000Y-106760000D03*
D26*
X212140000Y-103110000D03*
D28*
X210710000Y-102580000D03*
X219350000Y-102580000D03*
D29*
X214780000Y-101665000D03*
X216780000Y-101665000D03*
X216280000Y-101665000D03*
X215780000Y-101665000D03*
X215280000Y-101665000D03*
X214280000Y-101665000D03*
X213780000Y-101665000D03*
X213280000Y-101665000D03*
D30*
X218280000Y-101665000D03*
X217480000Y-101665000D03*
X212580000Y-101665000D03*
X211780000Y-101665000D03*
X211780000Y-101665000D03*
X212580000Y-101665000D03*
X217480000Y-101665000D03*
X218280000Y-101665000D03*
D18*
X178500000Y-55000000D03*
D19*
X181040000Y-55000000D03*
X183580000Y-55000000D03*
X186120000Y-55000000D03*
X188660000Y-55000000D03*
X191200000Y-55000000D03*
X193740000Y-55000000D03*
X196280000Y-55000000D03*
X198820000Y-55000000D03*
X201360000Y-55000000D03*
D18*
X129500000Y-55000000D03*
D19*
X132040000Y-55000000D03*
X134580000Y-55000000D03*
X137120000Y-55000000D03*
X139660000Y-55000000D03*
X142200000Y-55000000D03*
X144740000Y-55000000D03*
X147280000Y-55000000D03*
X149820000Y-55000000D03*
X152360000Y-55000000D03*
D18*
X178500000Y-95000000D03*
D19*
X181040000Y-95000000D03*
X183580000Y-95000000D03*
X186120000Y-95000000D03*
X188660000Y-95000000D03*
X191200000Y-95000000D03*
X193740000Y-95000000D03*
X196280000Y-95000000D03*
X198820000Y-95000000D03*
X201360000Y-95000000D03*
D18*
X210700000Y-76000000D03*
D19*
X213240000Y-76000000D03*
X215780000Y-76000000D03*
X218320000Y-76000000D03*
D18*
X161700000Y-76000000D03*
D19*
X164240000Y-76000000D03*
X166780000Y-76000000D03*
X169320000Y-76000000D03*
D18*
X210700000Y-116000000D03*
D19*
X213240000Y-116000000D03*
X215780000Y-116000000D03*
X218320000Y-116000000D03*
D22*
X144500000Y-126860000D03*
X135850000Y-126860000D03*
D21*
X144500000Y-123480000D03*
X135850000Y-123480000D03*
D20*
X140600000Y-123850000D03*
X143150000Y-123850000D03*
X142300000Y-123850000D03*
X141450000Y-123850000D03*
X137200000Y-123850000D03*
X138900000Y-123850000D03*
X139750000Y-123850000D03*
X138050000Y-123850000D03*
X143150000Y-122500000D03*
X142300000Y-122500000D03*
X141450000Y-122500000D03*
X140600000Y-122500000D03*
X139750000Y-122500000D03*
X138900000Y-122500000D03*
X138050000Y-122500000D03*
X137200000Y-122500000D03*
D26*
X138100000Y-103590000D03*
X138900000Y-103590000D03*
X139700000Y-103590000D03*
X141300000Y-103590000D03*
X142100000Y-103590000D03*
X142900000Y-103590000D03*
X137700000Y-102890000D03*
X139300000Y-102890000D03*
X140100000Y-102890000D03*
X140900000Y-102890000D03*
X141700000Y-102890000D03*
X143300000Y-102890000D03*
X136900000Y-102240000D03*
D25*
X144100000Y-102240000D03*
D23*
X136010000Y-109440000D03*
X144990000Y-109440000D03*
X144630000Y-103490000D03*
D24*
X142750000Y-101580000D03*
X141250000Y-101580000D03*
X141750000Y-101580000D03*
X142250000Y-101580000D03*
X143250000Y-101580000D03*
X140750000Y-101580000D03*
X140250000Y-101580000D03*
X139750000Y-101580000D03*
X139250000Y-101580000D03*
X138750000Y-101580000D03*
X138250000Y-101580000D03*
X137750000Y-101580000D03*
D23*
X136370000Y-103490000D03*
D30*
X169280000Y-101665000D03*
X168480000Y-101665000D03*
X163580000Y-101665000D03*
X162780000Y-101665000D03*
X162780000Y-101665000D03*
X163580000Y-101665000D03*
X168480000Y-101665000D03*
X169280000Y-101665000D03*
D29*
X164280000Y-101665000D03*
X164780000Y-101665000D03*
X165280000Y-101665000D03*
X166280000Y-101665000D03*
X166780000Y-101665000D03*
X167280000Y-101665000D03*
X167780000Y-101665000D03*
X165780000Y-101665000D03*
D28*
X170350000Y-102580000D03*
X161710000Y-102580000D03*
D26*
X163140000Y-103110000D03*
D27*
X161710000Y-106760000D03*
D26*
X168920000Y-103110000D03*
D27*
X170350000Y-106760000D03*
D17*
X169870000Y-124860000D03*
X161230000Y-124860000D03*
X161230000Y-121060000D03*
X169870000Y-121060000D03*
D16*
X166050000Y-120910000D03*
X165050000Y-120910000D03*
D15*
X168310000Y-120910000D03*
X162800000Y-120910000D03*
D14*
X164030000Y-120910000D03*
X167070000Y-120910000D03*
D19*
X152360000Y-95000000D03*
X149820000Y-95000000D03*
X147280000Y-95000000D03*
X144740000Y-95000000D03*
X142200000Y-95000000D03*
X139660000Y-95000000D03*
X137120000Y-95000000D03*
X134580000Y-95000000D03*
X132040000Y-95000000D03*
D18*
X129500000Y-95000000D03*
D19*
X169320000Y-116000000D03*
X166780000Y-116000000D03*
X164240000Y-116000000D03*
D18*
X161700000Y-116000000D03*
D19*
X134200000Y-116400000D03*
X136740000Y-116400000D03*
X139280000Y-116400000D03*
X141820000Y-116400000D03*
X144360000Y-116400000D03*
D18*
X146900000Y-116400000D03*
D19*
X159900000Y-95100000D03*
X162440000Y-95100000D03*
X164980000Y-95100000D03*
X167520000Y-95100000D03*
X170060000Y-95100000D03*
D18*
X172600000Y-95100000D03*
M02*
