M48
; DRILL file {KiCad (5.1.5)-3} date 2020/03/05 23:42:00
; FORMAT={-:-/ absolute / metric / decimal}
; #@! TF.CreationDate,2020-03-05T23:42:00+09:00
; #@! TF.GenerationSoftware,Kicad,Pcbnew,(5.1.5)-3
FMAT,2
METRIC
T1C0.300
T2C0.400
T3C0.600
T4C1.000
T5C1.100
T6C0.650
T7C0.950
%
G90
G05
T1
X127.0Y-53.0
X127.0Y-63.0
X127.0Y-73.0
X127.0Y-75.0
X127.0Y-83.0
X127.0Y-91.0
X127.0Y-93.0
X127.0Y-103.0
X127.0Y-113.0
X127.0Y-115.0
X127.0Y-123.0
X127.0Y-131.0
X129.2Y-57.0
X129.2Y-97.0
X131.0Y-56.6
X131.0Y-96.6
X133.4Y-57.9
X133.4Y-97.9
X134.6Y-60.5
X134.6Y-100.5
X136.1Y-78.4
X136.1Y-118.4
X137.9Y-56.6
X137.9Y-96.6
X138.9Y-78.0
X138.9Y-80.8
X138.9Y-118.0
X138.9Y-120.8
X141.0Y-73.0
X141.0Y-91.0
X141.0Y-113.0
X141.0Y-131.0
X141.5Y-79.6
X141.5Y-119.6
X143.1Y-77.6
X143.1Y-117.6
X143.7Y-58.1
X143.7Y-98.1
X144.0Y-60.7
X144.0Y-100.7
X146.3Y-57.4
X146.3Y-97.4
X155.0Y-53.0
X155.0Y-63.0
X155.0Y-73.0
X155.0Y-75.0
X155.0Y-83.0
X155.0Y-91.0
X155.0Y-93.0
X155.0Y-103.0
X155.0Y-113.0
X155.0Y-115.0
X155.0Y-123.0
X155.0Y-131.0
X157.0Y-53.0
X157.0Y-63.0
X157.0Y-73.0
X157.0Y-75.0
X157.0Y-83.0
X157.0Y-91.0
X157.0Y-93.0
X157.0Y-103.0
X157.0Y-113.0
X157.0Y-115.0
X157.0Y-123.0
X157.0Y-131.0
X165.0Y-73.0
X165.0Y-91.0
X165.0Y-113.0
X165.0Y-131.0
X166.0Y-53.0
X166.0Y-93.0
X168.8Y-58.6
X168.8Y-98.6
X171.0Y-56.5
X171.0Y-96.5
X174.0Y-53.0
X174.0Y-63.0
X174.0Y-73.0
X174.0Y-75.0
X174.0Y-83.0
X174.0Y-91.0
X174.0Y-93.0
X174.0Y-103.0
X174.0Y-113.0
X174.0Y-115.0
X174.0Y-123.0
X174.0Y-131.0
X176.0Y-53.0
X176.0Y-63.0
X176.0Y-73.0
X176.0Y-75.0
X176.0Y-83.0
X176.0Y-91.0
X176.0Y-93.0
X176.0Y-103.0
X176.0Y-113.0
X176.0Y-115.0
X176.0Y-123.0
X176.0Y-131.0
X178.2Y-57.0
X178.2Y-97.0
X180.0Y-56.6
X180.0Y-96.6
X182.4Y-57.9
X182.4Y-97.9
X183.6Y-60.5
X183.6Y-100.5
X185.1Y-78.4
X185.1Y-118.4
X186.9Y-56.6
X186.9Y-96.6
X187.9Y-78.0
X187.9Y-80.8
X187.9Y-118.0
X187.9Y-120.8
X190.0Y-73.0
X190.0Y-91.0
X190.0Y-113.0
X190.0Y-131.0
X190.5Y-79.6
X190.5Y-119.6
X192.1Y-77.6
X192.1Y-117.6
X192.7Y-58.1
X192.7Y-98.1
X193.0Y-60.7
X193.0Y-100.7
X195.3Y-57.4
X195.3Y-97.4
X204.0Y-53.0
X204.0Y-63.0
X204.0Y-73.0
X204.0Y-75.0
X204.0Y-83.0
X204.0Y-91.0
X204.0Y-93.0
X204.0Y-103.0
X204.0Y-113.0
X204.0Y-115.0
X204.0Y-123.0
X204.0Y-131.0
X206.0Y-53.0
X206.0Y-63.0
X206.0Y-73.0
X206.0Y-75.0
X206.0Y-83.0
X206.0Y-91.0
X206.0Y-93.0
X206.0Y-103.0
X206.0Y-113.0
X206.0Y-115.0
X206.0Y-123.0
X206.0Y-131.0
X214.0Y-73.0
X214.0Y-91.0
X214.0Y-113.0
X214.0Y-131.0
X215.0Y-53.0
X215.0Y-93.0
X217.8Y-58.6
X217.8Y-98.6
X220.0Y-56.5
X220.0Y-96.5
X223.0Y-53.0
X223.0Y-63.0
X223.0Y-73.0
X223.0Y-75.0
X223.0Y-83.0
X223.0Y-91.0
X223.0Y-93.0
X223.0Y-103.0
X223.0Y-113.0
X223.0Y-115.0
X223.0Y-123.0
X223.0Y-131.0
T2
X134.4Y-61.9
X134.4Y-101.9
X135.9Y-60.8
X135.9Y-100.8
X136.437Y-59.737
X136.437Y-99.737
X137.5Y-64.7
X137.5Y-104.7
X140.4Y-58.8
X140.4Y-98.8
X141.0Y-57.9
X141.0Y-97.9
X141.7Y-64.7
X141.7Y-104.7
X165.3Y-59.4
X165.3Y-99.4
X166.4Y-58.4
X166.4Y-98.4
X183.4Y-61.9
X183.4Y-101.9
X184.9Y-60.8
X184.9Y-100.8
X185.437Y-59.737
X185.437Y-99.737
X186.5Y-64.7
X186.5Y-104.7
X189.4Y-58.8
X189.4Y-98.8
X190.0Y-57.9
X190.0Y-97.9
X190.7Y-64.7
X190.7Y-104.7
X214.3Y-59.4
X214.3Y-99.4
X215.4Y-58.4
X215.4Y-98.4
X137.2Y-122.5
X137.2Y-123.85
X138.05Y-122.5
X138.05Y-123.85
X138.9Y-122.5
X138.9Y-123.85
X139.75Y-122.5
X139.75Y-123.85
X140.6Y-122.5
X140.6Y-123.85
X141.45Y-122.5
X141.45Y-123.85
X142.3Y-122.5
X142.3Y-123.85
X143.15Y-122.5
X143.15Y-123.85
X137.2Y-82.5
X137.2Y-83.85
X138.05Y-82.5
X138.05Y-83.85
X138.9Y-82.5
X138.9Y-83.85
X139.75Y-82.5
X139.75Y-83.85
X140.6Y-82.5
X140.6Y-83.85
X141.45Y-82.5
X141.45Y-83.85
X142.3Y-82.5
X142.3Y-83.85
X143.15Y-82.5
X143.15Y-83.85
X137.7Y-102.89
X138.1Y-103.59
X138.9Y-103.59
X139.3Y-102.89
X139.7Y-103.59
X140.1Y-102.89
X140.9Y-102.89
X141.3Y-103.59
X141.7Y-102.89
X142.1Y-103.59
X142.9Y-103.59
X143.3Y-102.89
X186.2Y-122.5
X186.2Y-123.85
X187.05Y-122.5
X187.05Y-123.85
X187.9Y-122.5
X187.9Y-123.85
X188.75Y-122.5
X188.75Y-123.85
X189.6Y-122.5
X189.6Y-123.85
X190.45Y-122.5
X190.45Y-123.85
X191.3Y-122.5
X191.3Y-123.85
X192.15Y-122.5
X192.15Y-123.85
X186.7Y-62.89
X187.1Y-63.59
X187.9Y-63.59
X188.3Y-62.89
X188.7Y-63.59
X189.1Y-62.89
X189.9Y-62.89
X190.3Y-63.59
X190.7Y-62.89
X191.1Y-63.59
X191.9Y-63.59
X192.3Y-62.89
X186.2Y-82.5
X186.2Y-83.85
X187.05Y-82.5
X187.05Y-83.85
X187.9Y-82.5
X187.9Y-83.85
X188.75Y-82.5
X188.75Y-83.85
X189.6Y-82.5
X189.6Y-83.85
X190.45Y-82.5
X190.45Y-83.85
X191.3Y-82.5
X191.3Y-83.85
X192.15Y-82.5
X192.15Y-83.85
X186.7Y-102.89
X187.1Y-103.59
X187.9Y-103.59
X188.3Y-102.89
X188.7Y-103.59
X189.1Y-102.89
X189.9Y-102.89
X190.3Y-103.59
X190.7Y-102.89
X191.1Y-103.59
X191.9Y-103.59
X192.3Y-102.89
X137.7Y-62.89
X138.1Y-63.59
X138.9Y-63.59
X139.3Y-62.89
X139.7Y-63.59
X140.1Y-62.89
X140.9Y-62.89
X141.3Y-63.59
X141.7Y-62.89
X142.1Y-63.59
X142.9Y-63.59
X143.3Y-62.89
T4
X161.7Y-76.0
X164.24Y-76.0
X166.78Y-76.0
X169.32Y-76.0
X129.5Y-95.0
X132.04Y-95.0
X134.58Y-95.0
X137.12Y-95.0
X139.66Y-95.0
X142.2Y-95.0
X144.74Y-95.0
X147.28Y-95.0
X149.82Y-95.0
X152.36Y-95.0
X178.5Y-55.0
X181.04Y-55.0
X183.58Y-55.0
X186.12Y-55.0
X188.66Y-55.0
X191.2Y-55.0
X193.74Y-55.0
X196.28Y-55.0
X198.82Y-55.0
X201.36Y-55.0
X210.7Y-116.0
X213.24Y-116.0
X215.78Y-116.0
X218.32Y-116.0
X161.7Y-116.0
X164.24Y-116.0
X166.78Y-116.0
X169.32Y-116.0
X134.2Y-76.4
X136.74Y-76.4
X139.28Y-76.4
X141.82Y-76.4
X144.36Y-76.4
X146.9Y-76.4
X183.2Y-116.4
X185.74Y-116.4
X188.28Y-116.4
X190.82Y-116.4
X193.36Y-116.4
X195.9Y-116.4
X134.2Y-116.4
X136.74Y-116.4
X139.28Y-116.4
X141.82Y-116.4
X144.36Y-116.4
X146.9Y-116.4
X183.2Y-76.4
X185.74Y-76.4
X188.28Y-76.4
X190.82Y-76.4
X193.36Y-76.4
X195.9Y-76.4
X159.9Y-95.1
X162.44Y-95.1
X164.98Y-95.1
X167.52Y-95.1
X170.06Y-95.1
X172.6Y-95.1
X208.9Y-55.1
X211.44Y-55.1
X213.98Y-55.1
X216.52Y-55.1
X219.06Y-55.1
X221.6Y-55.1
X159.9Y-55.1
X162.44Y-55.1
X164.98Y-55.1
X167.52Y-55.1
X170.06Y-55.1
X172.6Y-55.1
X178.5Y-95.0
X181.04Y-95.0
X183.58Y-95.0
X186.12Y-95.0
X188.66Y-95.0
X191.2Y-95.0
X193.74Y-95.0
X196.28Y-95.0
X198.82Y-95.0
X201.36Y-95.0
X208.9Y-95.1
X211.44Y-95.1
X213.98Y-95.1
X216.52Y-95.1
X219.06Y-95.1
X221.6Y-95.1
X129.5Y-55.0
X132.04Y-55.0
X134.58Y-55.0
X137.12Y-55.0
X139.66Y-55.0
X142.2Y-55.0
X144.74Y-55.0
X147.28Y-55.0
X149.82Y-55.0
X152.36Y-55.0
X210.7Y-76.0
X213.24Y-76.0
X215.78Y-76.0
X218.32Y-76.0
T5
X185.01Y-69.44
X185.37Y-63.49
X193.63Y-63.49
X193.99Y-69.44
X185.01Y-109.44
X185.37Y-103.49
X193.63Y-103.49
X193.99Y-109.44
X136.01Y-69.44
X136.37Y-63.49
X144.63Y-63.49
X144.99Y-69.44
X136.01Y-109.44
X136.37Y-103.49
X144.63Y-103.49
X144.99Y-109.44
T6
X136.9Y-62.24
X212.14Y-103.11
X217.92Y-103.11
X212.14Y-63.11
X217.92Y-63.11
X136.9Y-102.24
X163.14Y-103.11
X168.92Y-103.11
X163.14Y-63.11
X168.92Y-63.11
X185.9Y-62.24
X185.9Y-102.24
T7
X193.1Y-102.24
X144.1Y-62.24
X144.1Y-102.24
X193.1Y-62.24
T3
G00X210.23Y-80.76
M15
G01X210.23Y-81.36
M16
G05
G00X210.23Y-84.56
M15
G01X210.23Y-85.16
M16
G05
G00X218.87Y-80.76
M15
G01X218.87Y-81.36
M16
G05
G00X218.87Y-84.56
M15
G01X218.87Y-85.16
M16
G05
G00X210.71Y-102.03
M15
G01X210.71Y-103.13
M16
G05
G00X210.71Y-106.46
M15
G01X210.71Y-107.06
M16
G05
G00X219.35Y-102.03
M15
G01X219.35Y-103.13
M16
G05
G00X219.35Y-106.46
M15
G01X219.35Y-107.06
M16
G05
G00X210.71Y-62.03
M15
G01X210.71Y-63.13
M16
G05
G00X210.71Y-66.46
M15
G01X210.71Y-67.06
M16
G05
G00X219.35Y-62.03
M15
G01X219.35Y-63.13
M16
G05
G00X219.35Y-66.46
M15
G01X219.35Y-67.06
M16
G05
G00X135.85Y-122.73
M15
G01X135.85Y-124.23
M16
G05
G00X135.85Y-126.46
M15
G01X135.85Y-127.26
M16
G05
G00X144.5Y-122.73
M15
G01X144.5Y-124.23
M16
G05
G00X144.5Y-126.46
M15
G01X144.5Y-127.26
M16
G05
G00X135.85Y-82.73
M15
G01X135.85Y-84.23
M16
G05
G00X135.85Y-86.46
M15
G01X135.85Y-87.26
M16
G05
G00X144.5Y-82.73
M15
G01X144.5Y-84.23
M16
G05
G00X144.5Y-86.46
M15
G01X144.5Y-87.26
M16
G05
G00X184.85Y-122.73
M15
G01X184.85Y-124.23
M16
G05
G00X184.85Y-126.46
M15
G01X184.85Y-127.26
M16
G05
G00X193.5Y-122.73
M15
G01X193.5Y-124.23
M16
G05
G00X193.5Y-126.46
M15
G01X193.5Y-127.26
M16
G05
G00X161.71Y-102.03
M15
G01X161.71Y-103.13
M16
G05
G00X161.71Y-106.46
M15
G01X161.71Y-107.06
M16
G05
G00X170.35Y-102.03
M15
G01X170.35Y-103.13
M16
G05
G00X170.35Y-106.46
M15
G01X170.35Y-107.06
M16
G05
G00X161.23Y-80.76
M15
G01X161.23Y-81.36
M16
G05
G00X161.23Y-84.56
M15
G01X161.23Y-85.16
M16
G05
G00X169.87Y-80.76
M15
G01X169.87Y-81.36
M16
G05
G00X169.87Y-84.56
M15
G01X169.87Y-85.16
M16
G05
G00X210.23Y-120.76
M15
G01X210.23Y-121.36
M16
G05
G00X210.23Y-124.56
M15
G01X210.23Y-125.16
M16
G05
G00X218.87Y-120.76
M15
G01X218.87Y-121.36
M16
G05
G00X218.87Y-124.56
M15
G01X218.87Y-125.16
M16
G05
G00X161.71Y-62.03
M15
G01X161.71Y-63.13
M16
G05
G00X161.71Y-66.46
M15
G01X161.71Y-67.06
M16
G05
G00X170.35Y-62.03
M15
G01X170.35Y-63.13
M16
G05
G00X170.35Y-66.46
M15
G01X170.35Y-67.06
M16
G05
G00X184.85Y-82.73
M15
G01X184.85Y-84.23
M16
G05
G00X184.85Y-86.46
M15
G01X184.85Y-87.26
M16
G05
G00X193.5Y-82.73
M15
G01X193.5Y-84.23
M16
G05
G00X193.5Y-86.46
M15
G01X193.5Y-87.26
M16
G05
G00X161.23Y-120.76
M15
G01X161.23Y-121.36
M16
G05
G00X161.23Y-124.56
M15
G01X161.23Y-125.16
M16
G05
G00X169.87Y-120.76
M15
G01X169.87Y-121.36
M16
G05
G00X169.87Y-124.56
M15
G01X169.87Y-125.16
M16
G05
T0
M30
