M48
METRIC,TZ
T1C0.300
T2C0.400
T3C0.600
T4C1.000
T5C1.100
%
G90
G05
T1
X127000Y-53000
X127000Y-63000
X127000Y-73000
X127000Y-75000
X127000Y-83000
X127000Y-91000
X127000Y-93000
X127000Y-103000
X127000Y-113000
X127000Y-115000
X127000Y-123000
X127000Y-131000
X129200Y-57000
X129200Y-97000
X131000Y-56600
X131000Y-96600
X133400Y-57900
X133400Y-97900
X134600Y-60500
X134600Y-100500
X136100Y-78400
X136100Y-118400
X137900Y-56600
X137900Y-96600
X138900Y-78000
X138900Y-80800
X138900Y-118000
X138900Y-120800
X141000Y-73000
X141000Y-91000
X141000Y-113000
X141000Y-131000
X141500Y-79600
X141500Y-119600
X143100Y-77600
X143100Y-117600
X143700Y-58100
X143700Y-98100
X144000Y-60700
X144000Y-100700
X146300Y-57400
X146300Y-97400
X155000Y-53000
X155000Y-63000
X155000Y-73000
X155000Y-75000
X155000Y-83000
X155000Y-91000
X155000Y-93000
X155000Y-103000
X155000Y-113000
X155000Y-115000
X155000Y-123000
X155000Y-131000
X157000Y-53000
X157000Y-63000
X157000Y-73000
X157000Y-75000
X157000Y-83000
X157000Y-91000
X157000Y-93000
X157000Y-103000
X157000Y-113000
X157000Y-115000
X157000Y-123000
X157000Y-131000
X165000Y-73000
X165000Y-91000
X165000Y-113000
X165000Y-131000
X166000Y-53000
X166000Y-93000
X168800Y-58600
X168800Y-98600
X171000Y-56500
X171000Y-96500
X174000Y-53000
X174000Y-63000
X174000Y-73000
X174000Y-75000
X174000Y-83000
X174000Y-91000
X174000Y-93000
X174000Y-103000
X174000Y-113000
X174000Y-115000
X174000Y-123000
X174000Y-131000
X176000Y-53000
X176000Y-63000
X176000Y-73000
X176000Y-75000
X176000Y-83000
X176000Y-91000
X176000Y-93000
X176000Y-103000
X176000Y-113000
X176000Y-115000
X176000Y-123000
X176000Y-131000
X178200Y-57000
X178200Y-97000
X180000Y-56600
X180000Y-96600
X182400Y-57900
X182400Y-97900
X183600Y-60500
X183600Y-100500
X185100Y-78400
X185100Y-118400
X186900Y-56600
X186900Y-96600
X187900Y-78000
X187900Y-80800
X187900Y-118000
X187900Y-120800
X190000Y-73000
X190000Y-91000
X190000Y-113000
X190000Y-131000
X190500Y-79600
X190500Y-119600
X192100Y-77600
X192100Y-117600
X192700Y-58100
X192700Y-98100
X193000Y-60700
X193000Y-100700
X195300Y-57400
X195300Y-97400
X204000Y-53000
X204000Y-63000
X204000Y-73000
X204000Y-75000
X204000Y-83000
X204000Y-91000
X204000Y-93000
X204000Y-103000
X204000Y-113000
X204000Y-115000
X204000Y-123000
X204000Y-131000
X206000Y-53000
X206000Y-63000
X206000Y-73000
X206000Y-75000
X206000Y-83000
X206000Y-91000
X206000Y-93000
X206000Y-103000
X206000Y-113000
X206000Y-115000
X206000Y-123000
X206000Y-131000
X214000Y-73000
X214000Y-91000
X214000Y-113000
X214000Y-131000
X215000Y-53000
X215000Y-93000
X217800Y-58600
X217800Y-98600
X220000Y-56500
X220000Y-96500
X223000Y-53000
X223000Y-63000
X223000Y-73000
X223000Y-75000
X223000Y-83000
X223000Y-91000
X223000Y-93000
X223000Y-103000
X223000Y-113000
X223000Y-115000
X223000Y-123000
X223000Y-131000
T2
X134400Y-61900
X134400Y-101900
X135900Y-60800
X135900Y-100800
X136437Y-59737
X136437Y-99737
X137500Y-64700
X137500Y-104700
X140400Y-58800
X140400Y-98800
X141000Y-57900
X141000Y-97900
X141700Y-64700
X141700Y-104700
X165300Y-59400
X165300Y-99400
X166400Y-58400
X166400Y-98400
X183400Y-61900
X183400Y-101900
X184900Y-60800
X184900Y-100800
X185437Y-59737
X185437Y-99737
X186500Y-64700
X186500Y-104700
X189400Y-58800
X189400Y-98800
X190000Y-57900
X190000Y-97900
X190700Y-64700
X190700Y-104700
X214300Y-59400
X214300Y-99400
X215400Y-58400
X215400Y-98400
X186700Y-102890
X187100Y-103590
X187900Y-103590
X188300Y-102890
X188700Y-103590
X189100Y-102890
X189900Y-102890
X190300Y-103590
X190700Y-102890
X191100Y-103590
X191900Y-103590
X192300Y-102890
X137700Y-62890
X138100Y-63590
X138900Y-63590
X139300Y-62890
X139700Y-63590
X140100Y-62890
X140900Y-62890
X141300Y-63590
X141700Y-62890
X142100Y-63590
X142900Y-63590
X143300Y-62890
X137200Y-122500
X137200Y-123850
X138050Y-122500
X138050Y-123850
X138900Y-122500
X138900Y-123850
X139750Y-122500
X139750Y-123850
X140600Y-122500
X140600Y-123850
X141450Y-122500
X141450Y-123850
X142300Y-122500
X142300Y-123850
X143150Y-122500
X143150Y-123850
X137200Y-82500
X137200Y-83850
X138050Y-82500
X138050Y-83850
X138900Y-82500
X138900Y-83850
X139750Y-82500
X139750Y-83850
X140600Y-82500
X140600Y-83850
X141450Y-82500
X141450Y-83850
X142300Y-82500
X142300Y-83850
X143150Y-82500
X143150Y-83850
X137700Y-102890
X138100Y-103590
X138900Y-103590
X139300Y-102890
X139700Y-103590
X140100Y-102890
X140900Y-102890
X141300Y-103590
X141700Y-102890
X142100Y-103590
X142900Y-103590
X143300Y-102890
X186200Y-122500
X186200Y-123850
X187050Y-122500
X187050Y-123850
X187900Y-122500
X187900Y-123850
X188750Y-122500
X188750Y-123850
X189600Y-122500
X189600Y-123850
X190450Y-122500
X190450Y-123850
X191300Y-122500
X191300Y-123850
X192150Y-122500
X192150Y-123850
X186700Y-62890
X187100Y-63590
X187900Y-63590
X188300Y-62890
X188700Y-63590
X189100Y-62890
X189900Y-62890
X190300Y-63590
X190700Y-62890
X191100Y-63590
X191900Y-63590
X192300Y-62890
X186200Y-82500
X186200Y-83850
X187050Y-82500
X187050Y-83850
X187900Y-82500
X187900Y-83850
X188750Y-82500
X188750Y-83850
X189600Y-82500
X189600Y-83850
X190450Y-82500
X190450Y-83850
X191300Y-82500
X191300Y-83850
X192150Y-82500
X192150Y-83850
T4
X161700Y-76000
X164240Y-76000
X166780Y-76000
X169320Y-76000
X129500Y-95000
X132040Y-95000
X134580Y-95000
X137120Y-95000
X139660Y-95000
X142200Y-95000
X144740Y-95000
X147280Y-95000
X149820Y-95000
X152360Y-95000
X178500Y-55000
X181040Y-55000
X183580Y-55000
X186120Y-55000
X188660Y-55000
X191200Y-55000
X193740Y-55000
X196280Y-55000
X198820Y-55000
X201360Y-55000
X210700Y-116000
X213240Y-116000
X215780Y-116000
X218320Y-116000
X161700Y-116000
X164240Y-116000
X166780Y-116000
X169320Y-116000
X134200Y-76400
X136740Y-76400
X139280Y-76400
X141820Y-76400
X144360Y-76400
X146900Y-76400
X183200Y-116400
X185740Y-116400
X188280Y-116400
X190820Y-116400
X193360Y-116400
X195900Y-116400
X134200Y-116400
X136740Y-116400
X139280Y-116400
X141820Y-116400
X144360Y-116400
X146900Y-116400
X183200Y-76400
X185740Y-76400
X188280Y-76400
X190820Y-76400
X193360Y-76400
X195900Y-76400
X159900Y-95100
X162440Y-95100
X164980Y-95100
X167520Y-95100
X170060Y-95100
X172600Y-95100
X208900Y-55100
X211440Y-55100
X213980Y-55100
X216520Y-55100
X219060Y-55100
X221600Y-55100
X159900Y-55100
X162440Y-55100
X164980Y-55100
X167520Y-55100
X170060Y-55100
X172600Y-55100
X178500Y-95000
X181040Y-95000
X183580Y-95000
X186120Y-95000
X188660Y-95000
X191200Y-95000
X193740Y-95000
X196280Y-95000
X198820Y-95000
X201360Y-95000
X208900Y-95100
X211440Y-95100
X213980Y-95100
X216520Y-95100
X219060Y-95100
X221600Y-95100
X129500Y-55000
X132040Y-55000
X134580Y-55000
X137120Y-55000
X139660Y-55000
X142200Y-55000
X144740Y-55000
X147280Y-55000
X149820Y-55000
X152360Y-55000
X210700Y-76000
X213240Y-76000
X215780Y-76000
X218320Y-76000
T5
X136010Y-109440
X136370Y-103490
X144630Y-103490
X144990Y-109440
X185010Y-69440
X185370Y-63490
X193630Y-63490
X193990Y-69440
X185010Y-109440
X185370Y-103490
X193630Y-103490
X193990Y-109440
X136010Y-69440
X136370Y-63490
X144630Y-63490
X144990Y-69440
T3
G00X135850Y-82730
M15
G01X135850Y-84230
M16
G05
G00X135850Y-86460
M15
G01X135850Y-87260
M16
G05
G00X144500Y-82730
M15
G01X144500Y-84230
M16
G05
G00X144500Y-86460
M15
G01X144500Y-87260
M16
G05
G00X184850Y-122730
M15
G01X184850Y-124230
M16
G05
G00X184850Y-126460
M15
G01X184850Y-127260
M16
G05
G00X193500Y-122730
M15
G01X193500Y-124230
M16
G05
G00X193500Y-126460
M15
G01X193500Y-127260
M16
G05
G00X161710Y-102030
M15
G01X161710Y-103130
M16
G05
G00X161710Y-106460
M15
G01X161710Y-107060
M16
G05
G00X170350Y-102030
M15
G01X170350Y-103130
M16
G05
G00X170350Y-106460
M15
G01X170350Y-107060
M16
G05
G00X161230Y-80760
M15
G01X161230Y-81360
M16
G05
G00X161230Y-84560
M15
G01X161230Y-85160
M16
G05
G00X169870Y-80760
M15
G01X169870Y-81360
M16
G05
G00X169870Y-84560
M15
G01X169870Y-85160
M16
G05
G00X210230Y-120760
M15
G01X210230Y-121360
M16
G05
G00X210230Y-124560
M15
G01X210230Y-125160
M16
G05
G00X218870Y-120760
M15
G01X218870Y-121360
M16
G05
G00X218870Y-124560
M15
G01X218870Y-125160
M16
G05
G00X161710Y-62030
M15
G01X161710Y-63130
M16
G05
G00X161710Y-66460
M15
G01X161710Y-67060
M16
G05
G00X170350Y-62030
M15
G01X170350Y-63130
M16
G05
G00X170350Y-66460
M15
G01X170350Y-67060
M16
G05
G00X184850Y-82730
M15
G01X184850Y-84230
M16
G05
G00X184850Y-86460
M15
G01X184850Y-87260
M16
G05
G00X193500Y-82730
M15
G01X193500Y-84230
M16
G05
G00X193500Y-86460
M15
G01X193500Y-87260
M16
G05
G00X161230Y-120760
M15
G01X161230Y-121360
M16
G05
G00X161230Y-124560
M15
G01X161230Y-125160
M16
G05
G00X169870Y-120760
M15
G01X169870Y-121360
M16
G05
G00X169870Y-124560
M15
G01X169870Y-125160
M16
G05
G00X210230Y-80760
M15
G01X210230Y-81360
M16
G05
G00X210230Y-84560
M15
G01X210230Y-85160
M16
G05
G00X218870Y-80760
M15
G01X218870Y-81360
M16
G05
G00X218870Y-84560
M15
G01X218870Y-85160
M16
G05
G00X210710Y-102030
M15
G01X210710Y-103130
M16
G05
G00X210710Y-106460
M15
G01X210710Y-107060
M16
G05
G00X219350Y-102030
M15
G01X219350Y-103130
M16
G05
G00X219350Y-106460
M15
G01X219350Y-107060
M16
G05
G00X210710Y-62030
M15
G01X210710Y-63130
M16
G05
G00X210710Y-66460
M15
G01X210710Y-67060
M16
G05
G00X219350Y-62030
M15
G01X219350Y-63130
M16
G05
G00X219350Y-66460
M15
G01X219350Y-67060
M16
G05
G00X135850Y-122730
M15
G01X135850Y-124230
M16
G05
G00X135850Y-126460
M15
G01X135850Y-127260
M16
G05
G00X144500Y-122730
M15
G01X144500Y-124230
M16
G05
G00X144500Y-126460
M15
G01X144500Y-127260
M16
G05
T0
M30
